G04 #@! TF.GenerationSoftware,KiCad,Pcbnew,8.0.4*
G04 #@! TF.CreationDate,2024-09-19T17:48:01+02:00*
G04 #@! TF.ProjectId,vibration-motor,76696272-6174-4696-9f6e-2d6d6f746f72,rev?*
G04 #@! TF.SameCoordinates,Original*
G04 #@! TF.FileFunction,Copper,L1,Top*
G04 #@! TF.FilePolarity,Positive*
%FSLAX46Y46*%
G04 Gerber Fmt 4.6, Leading zero omitted, Abs format (unit mm)*
G04 Created by KiCad (PCBNEW 8.0.4) date 2024-09-19 17:48:01*
%MOMM*%
%LPD*%
G01*
G04 APERTURE LIST*
G04 Aperture macros list*
%AMRoundRect*
0 Rectangle with rounded corners*
0 $1 Rounding radius*
0 $2 $3 $4 $5 $6 $7 $8 $9 X,Y pos of 4 corners*
0 Add a 4 corners polygon primitive as box body*
4,1,4,$2,$3,$4,$5,$6,$7,$8,$9,$2,$3,0*
0 Add four circle primitives for the rounded corners*
1,1,$1+$1,$2,$3*
1,1,$1+$1,$4,$5*
1,1,$1+$1,$6,$7*
1,1,$1+$1,$8,$9*
0 Add four rect primitives between the rounded corners*
20,1,$1+$1,$2,$3,$4,$5,0*
20,1,$1+$1,$4,$5,$6,$7,0*
20,1,$1+$1,$6,$7,$8,$9,0*
20,1,$1+$1,$8,$9,$2,$3,0*%
G04 Aperture macros list end*
G04 #@! TA.AperFunction,Conductor*
%ADD10C,0.001000*%
G04 #@! TD*
G04 #@! TA.AperFunction,Conductor*
%ADD11C,0.050000*%
G04 #@! TD*
G04 #@! TA.AperFunction,ComponentPad*
%ADD12R,1.700000X1.700000*%
G04 #@! TD*
G04 #@! TA.AperFunction,ComponentPad*
%ADD13O,1.700000X1.700000*%
G04 #@! TD*
G04 #@! TA.AperFunction,SMDPad,CuDef*
%ADD14RoundRect,0.237500X0.250000X0.237500X-0.250000X0.237500X-0.250000X-0.237500X0.250000X-0.237500X0*%
G04 #@! TD*
G04 #@! TA.AperFunction,SMDPad,CuDef*
%ADD15RoundRect,0.237500X-0.250000X-0.237500X0.250000X-0.237500X0.250000X0.237500X-0.250000X0.237500X0*%
G04 #@! TD*
G04 #@! TA.AperFunction,SMDPad,CuDef*
%ADD16RoundRect,0.237500X0.237500X-0.300000X0.237500X0.300000X-0.237500X0.300000X-0.237500X-0.300000X0*%
G04 #@! TD*
G04 #@! TA.AperFunction,ComponentPad*
%ADD17C,1.700000*%
G04 #@! TD*
G04 #@! TA.AperFunction,SMDPad,CuDef*
%ADD18RoundRect,0.237500X0.237500X-0.250000X0.237500X0.250000X-0.237500X0.250000X-0.237500X-0.250000X0*%
G04 #@! TD*
G04 #@! TA.AperFunction,BGAPad,CuDef*
%ADD19C,0.250000*%
G04 #@! TD*
G04 #@! TA.AperFunction,SMDPad,CuDef*
%ADD20C,0.250000*%
G04 #@! TD*
G04 #@! TA.AperFunction,BGAPad,CuDef*
%ADD21C,0.200000*%
G04 #@! TD*
G04 #@! TA.AperFunction,SMDPad,CuDef*
%ADD22RoundRect,0.162500X-0.837500X-0.162500X0.837500X-0.162500X0.837500X0.162500X-0.837500X0.162500X0*%
G04 #@! TD*
G04 #@! TA.AperFunction,SMDPad,CuDef*
%ADD23RoundRect,0.237500X0.300000X0.237500X-0.300000X0.237500X-0.300000X-0.237500X0.300000X-0.237500X0*%
G04 #@! TD*
G04 #@! TA.AperFunction,SMDPad,CuDef*
%ADD24RoundRect,0.250000X-0.300000X0.300000X-0.300000X-0.300000X0.300000X-0.300000X0.300000X0.300000X0*%
G04 #@! TD*
G04 #@! TA.AperFunction,SMDPad,CuDef*
%ADD25RoundRect,0.237500X-0.300000X-0.237500X0.300000X-0.237500X0.300000X0.237500X-0.300000X0.237500X0*%
G04 #@! TD*
G04 #@! TA.AperFunction,ViaPad*
%ADD26C,0.600000*%
G04 #@! TD*
G04 #@! TA.AperFunction,ViaPad*
%ADD27C,0.450000*%
G04 #@! TD*
G04 #@! TA.AperFunction,Conductor*
%ADD28C,0.150000*%
G04 #@! TD*
G04 #@! TA.AperFunction,Conductor*
%ADD29C,0.200000*%
G04 #@! TD*
G04 #@! TA.AperFunction,Conductor*
%ADD30C,0.400000*%
G04 #@! TD*
G04 #@! TA.AperFunction,Conductor*
%ADD31C,0.250000*%
G04 #@! TD*
G04 APERTURE END LIST*
D10*
X96230000Y-60040000D02*
X95840000Y-60050000D01*
X95840000Y-58520000D01*
X95880000Y-58430000D01*
X96230000Y-60040000D01*
G04 #@! TA.AperFunction,Conductor*
G36*
X96230000Y-60040000D02*
G01*
X95840000Y-60050000D01*
X95840000Y-58520000D01*
X95880000Y-58430000D01*
X96230000Y-60040000D01*
G37*
G04 #@! TD.AperFunction*
X96230000Y-58600000D02*
X96310000Y-60270000D01*
X96060000Y-60160000D01*
X96120000Y-58430000D01*
X96230000Y-58600000D01*
G04 #@! TA.AperFunction,Conductor*
G36*
X96230000Y-58600000D02*
G01*
X96310000Y-60270000D01*
X96060000Y-60160000D01*
X96120000Y-58430000D01*
X96230000Y-58600000D01*
G37*
G04 #@! TD.AperFunction*
D11*
X94560000Y-60780000D02*
X93890000Y-61740000D01*
X93340000Y-61480000D01*
X93760000Y-60940000D01*
X93580000Y-60770000D01*
X94560000Y-60530000D01*
X94560000Y-60780000D01*
G04 #@! TA.AperFunction,Conductor*
G36*
X94560000Y-60780000D02*
G01*
X93890000Y-61740000D01*
X93340000Y-61480000D01*
X93760000Y-60940000D01*
X93580000Y-60770000D01*
X94560000Y-60530000D01*
X94560000Y-60780000D01*
G37*
G04 #@! TD.AperFunction*
D12*
X71800000Y-64380000D03*
D13*
X71800000Y-61840000D03*
X71800000Y-59300000D03*
D14*
X77375000Y-55892500D03*
X75550000Y-55892500D03*
D15*
X75537500Y-57687500D03*
X77362500Y-57687500D03*
D16*
X78525000Y-52625000D03*
X78525000Y-50900000D03*
D17*
X105150000Y-48975000D03*
D13*
X105150000Y-51515000D03*
X105150000Y-54055000D03*
X105150000Y-56595000D03*
X105150000Y-59135000D03*
X105150000Y-61675000D03*
X105150000Y-64215000D03*
D12*
X105150000Y-66755000D03*
D18*
X95750000Y-64500000D03*
X95750000Y-62675000D03*
D17*
X95740000Y-52650000D03*
D13*
X93200000Y-52650000D03*
D19*
X96400000Y-58250000D03*
D20*
X96000000Y-58250000D03*
D19*
X95600000Y-58250000D03*
X96400000Y-57850000D03*
D20*
X96000000Y-57850000D03*
D19*
X95600000Y-57850000D03*
X96400000Y-57450000D03*
D21*
X96000000Y-57450000D03*
D19*
X95600000Y-57450000D03*
D22*
X78050000Y-63850000D03*
X78050000Y-65750000D03*
X81470000Y-64800000D03*
D18*
X99250000Y-64500000D03*
X99250000Y-62675000D03*
D17*
X71800000Y-51310000D03*
D13*
X71800000Y-53850000D03*
D18*
X97500000Y-64500000D03*
X97500000Y-62675000D03*
D23*
X96275000Y-55250000D03*
X94550000Y-55250000D03*
D24*
X81275000Y-49975000D03*
X81275000Y-52775000D03*
D25*
X94050000Y-60500000D03*
X95775000Y-60500000D03*
D26*
X78275000Y-49375000D03*
X92800000Y-61650000D03*
X91250000Y-58900000D03*
X98500000Y-67000000D03*
X103750000Y-65500000D03*
X72000000Y-66600000D03*
X97600000Y-54750000D03*
X93440000Y-57730000D03*
X97575000Y-57650000D03*
D27*
X95250000Y-56950000D03*
X99250000Y-59600000D03*
X94090000Y-59540000D03*
D26*
X101700000Y-52950000D03*
D27*
X95070000Y-59000000D03*
X97500000Y-59210000D03*
D26*
X94600000Y-63550000D03*
X91100000Y-61600000D03*
D28*
X96000000Y-58250000D02*
X96000000Y-57850000D01*
D29*
X95070000Y-59000000D02*
X95070000Y-58780000D01*
X95070000Y-58780000D02*
X95575000Y-58275000D01*
X95600000Y-57850000D02*
X95250000Y-57850000D01*
X94320000Y-58560000D02*
X94090000Y-58790000D01*
X95250000Y-57850000D02*
X94540000Y-58560000D01*
X94540000Y-58560000D02*
X94320000Y-58560000D01*
X94090000Y-58790000D02*
X94090000Y-59540000D01*
D30*
X81470000Y-63970000D02*
X81470000Y-64800000D01*
X79720000Y-62250000D02*
X79750000Y-62250000D01*
X79720000Y-55260000D02*
X79720000Y-62250000D01*
X78525000Y-52625000D02*
X81125000Y-52625000D01*
X78475000Y-54015000D02*
X79720000Y-55260000D01*
D29*
X78485000Y-52665000D02*
X78525000Y-52625000D01*
D30*
X78510000Y-52610000D02*
X78525000Y-52625000D01*
X78525000Y-52625000D02*
X78475000Y-52675000D01*
X71800000Y-53850000D02*
X77300000Y-53850000D01*
X78475000Y-52675000D02*
X78475000Y-54015000D01*
D29*
X81125000Y-52625000D02*
X81275000Y-52775000D01*
D30*
X77300000Y-53850000D02*
X78525000Y-52625000D01*
X79750000Y-62250000D02*
X81470000Y-63970000D01*
D29*
X97500000Y-64500000D02*
X97500000Y-65750000D01*
D30*
X78275000Y-49375000D02*
X78275000Y-50650000D01*
X102850000Y-65250000D02*
X102850000Y-64570000D01*
X95500000Y-65750000D02*
X94750000Y-65750000D01*
X71920000Y-61960000D02*
X72660000Y-61960000D01*
X98250000Y-65750000D02*
X102350000Y-65750000D01*
X74350000Y-63650000D02*
X74350000Y-66900000D01*
X102850000Y-64570000D02*
X103210000Y-64210000D01*
X102350000Y-65750000D02*
X102850000Y-65250000D01*
X95500000Y-65750000D02*
X97500000Y-65750000D01*
D29*
X99250000Y-64500000D02*
X99250000Y-65750000D01*
D30*
X71800000Y-61840000D02*
X71920000Y-61960000D01*
X103210000Y-64210000D02*
X105145000Y-64210000D01*
X94350000Y-65750000D02*
X94750000Y-65750000D01*
X75200000Y-67750000D02*
X92750000Y-67750000D01*
X93850000Y-65250000D02*
X94350000Y-65750000D01*
X80675000Y-49375000D02*
X81275000Y-49975000D01*
D29*
X95900000Y-60500000D02*
X95775000Y-60500000D01*
D30*
X78275000Y-50650000D02*
X78525000Y-50900000D01*
D31*
X96000000Y-60275000D02*
X96000000Y-58250000D01*
D30*
X93850000Y-62790000D02*
X93850000Y-65250000D01*
D29*
X95750000Y-64500000D02*
X95750000Y-65750000D01*
D30*
X78275000Y-49375000D02*
X80675000Y-49375000D01*
X95900000Y-60500000D02*
X95900000Y-60740000D01*
X95900000Y-60740000D02*
X93850000Y-62790000D01*
X92750000Y-67750000D02*
X94750000Y-65750000D01*
X97500000Y-65750000D02*
X99250000Y-65750000D01*
X105145000Y-64210000D02*
X105150000Y-64215000D01*
X74350000Y-66900000D02*
X75200000Y-67750000D01*
X72660000Y-61960000D02*
X74350000Y-63650000D01*
D29*
X95775000Y-60500000D02*
X96000000Y-60275000D01*
X96000000Y-55525000D02*
X96275000Y-55250000D01*
X96000000Y-57450000D02*
X96000000Y-55525000D01*
X96400211Y-57849789D02*
X96400000Y-57850000D01*
X97375211Y-57849789D02*
X96400211Y-57849789D01*
X97575000Y-57650000D02*
X97375211Y-57849789D01*
X94050000Y-60500000D02*
X94050000Y-60310000D01*
X95000000Y-55250000D02*
X94550000Y-55250000D01*
X95250000Y-57087500D02*
X95250000Y-56950000D01*
X95600000Y-57437500D02*
X95250000Y-57087500D01*
X95600000Y-57450000D02*
X95600000Y-57437500D01*
X99250000Y-59600000D02*
X99250000Y-62675000D01*
X96650000Y-57200000D02*
X96650000Y-57190000D01*
D30*
X101500000Y-51510000D02*
X100540000Y-51510000D01*
D31*
X96400000Y-57450000D02*
X96650000Y-57200000D01*
D30*
X100540000Y-51510000D02*
X99000000Y-53050000D01*
X99000000Y-54700000D02*
X97000000Y-56700000D01*
X101505000Y-51515000D02*
X105150000Y-51515000D01*
X97000000Y-56840000D02*
X96650000Y-57190000D01*
X97000000Y-56700000D02*
X97000000Y-56840000D01*
X99000000Y-53050000D02*
X99000000Y-54700000D01*
X101700000Y-53550000D02*
X101700000Y-52950000D01*
D31*
X96425000Y-58250000D02*
X96575000Y-58400000D01*
D30*
X96850000Y-58400000D02*
X98450000Y-58400000D01*
D29*
X96400000Y-58250000D02*
X96412500Y-58250000D01*
D30*
X98600000Y-58250000D02*
X98600000Y-56650000D01*
X98600000Y-56650000D02*
X101700000Y-53550000D01*
X98450000Y-58400000D02*
X98600000Y-58250000D01*
D31*
X96400000Y-58250000D02*
X96425000Y-58250000D01*
D29*
X96775000Y-58400000D02*
X96825000Y-58450000D01*
X101700000Y-52950000D02*
X101700000Y-53000000D01*
D31*
X96575000Y-58400000D02*
X96775000Y-58400000D01*
D29*
X105125000Y-49000000D02*
X105150000Y-48975000D01*
X99020000Y-59070000D02*
X101500000Y-56590000D01*
X97660000Y-59210000D02*
X97800000Y-59070000D01*
X97500000Y-59210000D02*
X97660000Y-59210000D01*
X105145000Y-56590000D02*
X105150000Y-56595000D01*
X97800000Y-59070000D02*
X99020000Y-59070000D01*
X97500000Y-59210000D02*
X97500000Y-62675000D01*
X101500000Y-56590000D02*
X105145000Y-56590000D01*
X75537500Y-58662500D02*
X75537500Y-57687500D01*
X72200000Y-59700000D02*
X71800000Y-59300000D01*
X72000000Y-59500000D02*
X71800000Y-59300000D01*
X75537500Y-57687500D02*
X75512500Y-57662500D01*
X71800000Y-59300000D02*
X74900000Y-59300000D01*
X74900000Y-59300000D02*
X75537500Y-58662500D01*
X77362500Y-57687500D02*
X77375000Y-57675000D01*
X77362500Y-57687500D02*
X77362500Y-63162500D01*
X77362500Y-63162500D02*
X78050000Y-63850000D01*
X77362500Y-57687500D02*
X77537500Y-57512500D01*
X77375000Y-57675000D02*
X77375000Y-55612500D01*
X92750000Y-54050000D02*
X94800000Y-54050000D01*
X94600000Y-63100000D02*
X95025000Y-62675000D01*
X95025000Y-62675000D02*
X95750000Y-62675000D01*
X94600000Y-63550000D02*
X94600000Y-63100000D01*
X91100000Y-61600000D02*
X91100000Y-60800000D01*
X92300000Y-59600000D02*
X92300000Y-54500000D01*
X91100000Y-60800000D02*
X92300000Y-59600000D01*
X95740000Y-53110000D02*
X95740000Y-52400000D01*
X94800000Y-54050000D02*
X95740000Y-53110000D01*
X92300000Y-54500000D02*
X92750000Y-54050000D01*
G04 #@! TA.AperFunction,Conductor*
G36*
X107065800Y-47020185D02*
G01*
X107111555Y-47072989D01*
X107122761Y-47124500D01*
X107122761Y-68497290D01*
X107103076Y-68564329D01*
X107050272Y-68610084D01*
X106998761Y-68621290D01*
X93100405Y-68621290D01*
X93033366Y-68601605D01*
X92987611Y-68548801D01*
X92977667Y-68479643D01*
X93006692Y-68416087D01*
X93052952Y-68382729D01*
X93059708Y-68379930D01*
X93081811Y-68370775D01*
X93196543Y-68294114D01*
X95003838Y-66486819D01*
X95065161Y-66453334D01*
X95091519Y-66450500D01*
X102418996Y-66450500D01*
X102510040Y-66432389D01*
X102554328Y-66423580D01*
X102618069Y-66397177D01*
X102681807Y-66370777D01*
X102681808Y-66370776D01*
X102681811Y-66370775D01*
X102796543Y-66294114D01*
X103394114Y-65696543D01*
X103470775Y-65581811D01*
X103475395Y-65570659D01*
X103504662Y-65500000D01*
X103523580Y-65454328D01*
X103546843Y-65337379D01*
X103550500Y-65318996D01*
X103550500Y-65034500D01*
X103570185Y-64967461D01*
X103622989Y-64921706D01*
X103674500Y-64910500D01*
X103923788Y-64910500D01*
X103990827Y-64930185D01*
X104025362Y-64963376D01*
X104045923Y-64992740D01*
X104111503Y-65086399D01*
X104111504Y-65086400D01*
X104111505Y-65086401D01*
X104233819Y-65208715D01*
X104267303Y-65270036D01*
X104262319Y-65339728D01*
X104220448Y-65395662D01*
X104189471Y-65412577D01*
X104057912Y-65461646D01*
X104057906Y-65461649D01*
X103942812Y-65547809D01*
X103942809Y-65547812D01*
X103856649Y-65662906D01*
X103856645Y-65662913D01*
X103806403Y-65797620D01*
X103806401Y-65797627D01*
X103800000Y-65857155D01*
X103800000Y-66505000D01*
X104716988Y-66505000D01*
X104684075Y-66562007D01*
X104650000Y-66689174D01*
X104650000Y-66820826D01*
X104684075Y-66947993D01*
X104716988Y-67005000D01*
X103800000Y-67005000D01*
X103800000Y-67652844D01*
X103806401Y-67712372D01*
X103806403Y-67712379D01*
X103856645Y-67847086D01*
X103856649Y-67847093D01*
X103942809Y-67962187D01*
X103942812Y-67962190D01*
X104057906Y-68048350D01*
X104057913Y-68048354D01*
X104192620Y-68098596D01*
X104192627Y-68098598D01*
X104252155Y-68104999D01*
X104252172Y-68105000D01*
X104900000Y-68105000D01*
X104900000Y-67188012D01*
X104957007Y-67220925D01*
X105084174Y-67255000D01*
X105215826Y-67255000D01*
X105342993Y-67220925D01*
X105400000Y-67188012D01*
X105400000Y-68105000D01*
X106047828Y-68105000D01*
X106047844Y-68104999D01*
X106107372Y-68098598D01*
X106107379Y-68098596D01*
X106242086Y-68048354D01*
X106242093Y-68048350D01*
X106357187Y-67962190D01*
X106357190Y-67962187D01*
X106443350Y-67847093D01*
X106443354Y-67847086D01*
X106493596Y-67712379D01*
X106493598Y-67712372D01*
X106499999Y-67652844D01*
X106500000Y-67652827D01*
X106500000Y-67005000D01*
X105583012Y-67005000D01*
X105615925Y-66947993D01*
X105650000Y-66820826D01*
X105650000Y-66689174D01*
X105615925Y-66562007D01*
X105583012Y-66505000D01*
X106500000Y-66505000D01*
X106500000Y-65857172D01*
X106499999Y-65857155D01*
X106493598Y-65797627D01*
X106493596Y-65797620D01*
X106443354Y-65662913D01*
X106443350Y-65662906D01*
X106357190Y-65547812D01*
X106357187Y-65547809D01*
X106242093Y-65461649D01*
X106242088Y-65461646D01*
X106110528Y-65412577D01*
X106054595Y-65370705D01*
X106030178Y-65305241D01*
X106045030Y-65236968D01*
X106066175Y-65208720D01*
X106188495Y-65086401D01*
X106324035Y-64892830D01*
X106423903Y-64678663D01*
X106485063Y-64450408D01*
X106505659Y-64215000D01*
X106485063Y-63979592D01*
X106427744Y-63765671D01*
X106423905Y-63751344D01*
X106423904Y-63751343D01*
X106423903Y-63751337D01*
X106324035Y-63537171D01*
X106323510Y-63536420D01*
X106188494Y-63343597D01*
X106021402Y-63176506D01*
X106021396Y-63176501D01*
X105835842Y-63046575D01*
X105792217Y-62991998D01*
X105785023Y-62922500D01*
X105816546Y-62860145D01*
X105835842Y-62843425D01*
X105906265Y-62794114D01*
X106021401Y-62713495D01*
X106188495Y-62546401D01*
X106324035Y-62352830D01*
X106423903Y-62138663D01*
X106485063Y-61910408D01*
X106505659Y-61675000D01*
X106505213Y-61669908D01*
X106489883Y-61494683D01*
X106485063Y-61439592D01*
X106423903Y-61211337D01*
X106324035Y-60997171D01*
X106304028Y-60968597D01*
X106188494Y-60803597D01*
X106021402Y-60636506D01*
X106021396Y-60636501D01*
X105835842Y-60506575D01*
X105792217Y-60451998D01*
X105785023Y-60382500D01*
X105816546Y-60320145D01*
X105835842Y-60303425D01*
X105910702Y-60251007D01*
X106021401Y-60173495D01*
X106188495Y-60006401D01*
X106324035Y-59812830D01*
X106423903Y-59598663D01*
X106485063Y-59370408D01*
X106505659Y-59135000D01*
X106505362Y-59131611D01*
X106496579Y-59031216D01*
X106485063Y-58899592D01*
X106423903Y-58671337D01*
X106324035Y-58457171D01*
X106304028Y-58428597D01*
X106188494Y-58263597D01*
X106021402Y-58096506D01*
X106021396Y-58096501D01*
X105835842Y-57966575D01*
X105792217Y-57911998D01*
X105785023Y-57842500D01*
X105816546Y-57780145D01*
X105835842Y-57763425D01*
X105998189Y-57649748D01*
X106021401Y-57633495D01*
X106188495Y-57466401D01*
X106324035Y-57272830D01*
X106423903Y-57058663D01*
X106485063Y-56830408D01*
X106505659Y-56595000D01*
X106485063Y-56359592D01*
X106423903Y-56131337D01*
X106324035Y-55917171D01*
X106324033Y-55917167D01*
X106188494Y-55723597D01*
X106021402Y-55556506D01*
X106021396Y-55556501D01*
X105835842Y-55426575D01*
X105792217Y-55371998D01*
X105785023Y-55302500D01*
X105816546Y-55240145D01*
X105835842Y-55223425D01*
X105877654Y-55194148D01*
X106021401Y-55093495D01*
X106188495Y-54926401D01*
X106324035Y-54732830D01*
X106423903Y-54518663D01*
X106485063Y-54290408D01*
X106505659Y-54055000D01*
X106485063Y-53819592D01*
X106430134Y-53614592D01*
X106423905Y-53591344D01*
X106423904Y-53591343D01*
X106423903Y-53591337D01*
X106324035Y-53377171D01*
X106301639Y-53345185D01*
X106188494Y-53183597D01*
X106021402Y-53016506D01*
X106021396Y-53016501D01*
X105835842Y-52886575D01*
X105792217Y-52831998D01*
X105785023Y-52762500D01*
X105816546Y-52700145D01*
X105835842Y-52683425D01*
X105950052Y-52603454D01*
X106021401Y-52553495D01*
X106188495Y-52386401D01*
X106324035Y-52192830D01*
X106423903Y-51978663D01*
X106485063Y-51750408D01*
X106505659Y-51515000D01*
X106485063Y-51279592D01*
X106430134Y-51074592D01*
X106423905Y-51051344D01*
X106423904Y-51051343D01*
X106423903Y-51051337D01*
X106324035Y-50837171D01*
X106323510Y-50836420D01*
X106188494Y-50643597D01*
X106021402Y-50476506D01*
X106021396Y-50476501D01*
X105835842Y-50346575D01*
X105792217Y-50291998D01*
X105785023Y-50222500D01*
X105816546Y-50160145D01*
X105835842Y-50143425D01*
X105858026Y-50127891D01*
X106021401Y-50013495D01*
X106188495Y-49846401D01*
X106324035Y-49652830D01*
X106423903Y-49438663D01*
X106485063Y-49210408D01*
X106505659Y-48975000D01*
X106485063Y-48739592D01*
X106423903Y-48511337D01*
X106324035Y-48297171D01*
X106188495Y-48103599D01*
X106188494Y-48103597D01*
X106021402Y-47936506D01*
X106021395Y-47936501D01*
X105827834Y-47800967D01*
X105827830Y-47800965D01*
X105827828Y-47800964D01*
X105613663Y-47701097D01*
X105613659Y-47701096D01*
X105613655Y-47701094D01*
X105385413Y-47639938D01*
X105385403Y-47639936D01*
X105150001Y-47619341D01*
X105149999Y-47619341D01*
X104914596Y-47639936D01*
X104914586Y-47639938D01*
X104686344Y-47701094D01*
X104686335Y-47701098D01*
X104472171Y-47800964D01*
X104472169Y-47800965D01*
X104278597Y-47936505D01*
X104111505Y-48103597D01*
X103975965Y-48297169D01*
X103975964Y-48297171D01*
X103876098Y-48511335D01*
X103876094Y-48511344D01*
X103814938Y-48739586D01*
X103814936Y-48739596D01*
X103794341Y-48974999D01*
X103794341Y-48975000D01*
X103814936Y-49210403D01*
X103814938Y-49210413D01*
X103876094Y-49438655D01*
X103876096Y-49438659D01*
X103876097Y-49438663D01*
X103929996Y-49554249D01*
X103975965Y-49652830D01*
X103975967Y-49652834D01*
X104111501Y-49846395D01*
X104111506Y-49846402D01*
X104278597Y-50013493D01*
X104278603Y-50013498D01*
X104464158Y-50143425D01*
X104507783Y-50198002D01*
X104514977Y-50267500D01*
X104483454Y-50329855D01*
X104464158Y-50346575D01*
X104278597Y-50476505D01*
X104111506Y-50643596D01*
X104028864Y-50761623D01*
X103974287Y-50805248D01*
X103927289Y-50814500D01*
X101606342Y-50814500D01*
X101582150Y-50812117D01*
X101568994Y-50809500D01*
X101568993Y-50809500D01*
X100608994Y-50809500D01*
X100471006Y-50809500D01*
X100471004Y-50809500D01*
X100335677Y-50836418D01*
X100335667Y-50836421D01*
X100208192Y-50889222D01*
X100093454Y-50965887D01*
X98455887Y-52603454D01*
X98379222Y-52718192D01*
X98326421Y-52845667D01*
X98326418Y-52845679D01*
X98300860Y-52974169D01*
X98300859Y-52974174D01*
X98299500Y-52981004D01*
X98299500Y-54358480D01*
X98279815Y-54425519D01*
X98263181Y-54446161D01*
X97524680Y-55184662D01*
X97463357Y-55218147D01*
X97393665Y-55213163D01*
X97337732Y-55171291D01*
X97313315Y-55105827D01*
X97312999Y-55096981D01*
X97312999Y-54963330D01*
X97312998Y-54963313D01*
X97302674Y-54862247D01*
X97248408Y-54698484D01*
X97157840Y-54551650D01*
X97035850Y-54429660D01*
X96902098Y-54347161D01*
X96889018Y-54339093D01*
X96889013Y-54339091D01*
X96849555Y-54326016D01*
X96725253Y-54284826D01*
X96725251Y-54284825D01*
X96624178Y-54274500D01*
X95925830Y-54274500D01*
X95925812Y-54274501D01*
X95824747Y-54284825D01*
X95824744Y-54284826D01*
X95707691Y-54323614D01*
X95637862Y-54326016D01*
X95577821Y-54290284D01*
X95546628Y-54227763D01*
X95554189Y-54158304D01*
X95581003Y-54118231D01*
X95657258Y-54041977D01*
X95718581Y-54008492D01*
X95734661Y-54006763D01*
X95734606Y-54006131D01*
X95782690Y-54001924D01*
X95975408Y-53985063D01*
X96203663Y-53923903D01*
X96417830Y-53824035D01*
X96611401Y-53688495D01*
X96778495Y-53521401D01*
X96914035Y-53327830D01*
X97013903Y-53113663D01*
X97075063Y-52885408D01*
X97095659Y-52650000D01*
X97075063Y-52414592D01*
X97013903Y-52186337D01*
X96914035Y-51972171D01*
X96908425Y-51964158D01*
X96778494Y-51778597D01*
X96611402Y-51611506D01*
X96611395Y-51611501D01*
X96417834Y-51475967D01*
X96417830Y-51475965D01*
X96417828Y-51475964D01*
X96203663Y-51376097D01*
X96203659Y-51376096D01*
X96203655Y-51376094D01*
X95975413Y-51314938D01*
X95975403Y-51314936D01*
X95740001Y-51294341D01*
X95739999Y-51294341D01*
X95504596Y-51314936D01*
X95504586Y-51314938D01*
X95276344Y-51376094D01*
X95276335Y-51376098D01*
X95062171Y-51475964D01*
X95062169Y-51475965D01*
X94868597Y-51611505D01*
X94701505Y-51778597D01*
X94571575Y-51964158D01*
X94516998Y-52007783D01*
X94447500Y-52014977D01*
X94385145Y-51983454D01*
X94368425Y-51964158D01*
X94238494Y-51778597D01*
X94071402Y-51611506D01*
X94071395Y-51611501D01*
X93877834Y-51475967D01*
X93877830Y-51475965D01*
X93877828Y-51475964D01*
X93663663Y-51376097D01*
X93663659Y-51376096D01*
X93663655Y-51376094D01*
X93435413Y-51314938D01*
X93435403Y-51314936D01*
X93200001Y-51294341D01*
X93199999Y-51294341D01*
X92964596Y-51314936D01*
X92964586Y-51314938D01*
X92736344Y-51376094D01*
X92736335Y-51376098D01*
X92522171Y-51475964D01*
X92522169Y-51475965D01*
X92328597Y-51611505D01*
X92161505Y-51778597D01*
X92025965Y-51972169D01*
X92025964Y-51972171D01*
X91926098Y-52186335D01*
X91926094Y-52186344D01*
X91864938Y-52414586D01*
X91864936Y-52414596D01*
X91844341Y-52649999D01*
X91844341Y-52650000D01*
X91864936Y-52885403D01*
X91864938Y-52885413D01*
X91926094Y-53113655D01*
X91926096Y-53113659D01*
X91926097Y-53113663D01*
X91953379Y-53172169D01*
X92025965Y-53327830D01*
X92025967Y-53327834D01*
X92072533Y-53394336D01*
X92155681Y-53513084D01*
X92161501Y-53521395D01*
X92161506Y-53521402D01*
X92207753Y-53567649D01*
X92241238Y-53628972D01*
X92236254Y-53698664D01*
X92207753Y-53743011D01*
X91819481Y-54131282D01*
X91819479Y-54131285D01*
X91769361Y-54218094D01*
X91769359Y-54218096D01*
X91740425Y-54268209D01*
X91740424Y-54268210D01*
X91734476Y-54290408D01*
X91699499Y-54420943D01*
X91699499Y-54420945D01*
X91699499Y-54589046D01*
X91699500Y-54589059D01*
X91699500Y-59299902D01*
X91679815Y-59366941D01*
X91663181Y-59387583D01*
X90619481Y-60431282D01*
X90619479Y-60431285D01*
X90569361Y-60518094D01*
X90569359Y-60518096D01*
X90540425Y-60568209D01*
X90540424Y-60568210D01*
X90533916Y-60592500D01*
X90499499Y-60720943D01*
X90499499Y-60720945D01*
X90499499Y-60889046D01*
X90499500Y-60889059D01*
X90499500Y-61017587D01*
X90479815Y-61084626D01*
X90472450Y-61094896D01*
X90470186Y-61097734D01*
X90374211Y-61250476D01*
X90314631Y-61420745D01*
X90314630Y-61420750D01*
X90294435Y-61599996D01*
X90294435Y-61600003D01*
X90314630Y-61779249D01*
X90314631Y-61779254D01*
X90374211Y-61949523D01*
X90439084Y-62052767D01*
X90470184Y-62102262D01*
X90597738Y-62229816D01*
X90750478Y-62325789D01*
X90893436Y-62375812D01*
X90920745Y-62385368D01*
X90920750Y-62385369D01*
X91099996Y-62405565D01*
X91100000Y-62405565D01*
X91100004Y-62405565D01*
X91279249Y-62385369D01*
X91279252Y-62385368D01*
X91279255Y-62385368D01*
X91449522Y-62325789D01*
X91602262Y-62229816D01*
X91729816Y-62102262D01*
X91825789Y-61949522D01*
X91885368Y-61779255D01*
X91885369Y-61779249D01*
X91905565Y-61600003D01*
X91905565Y-61599996D01*
X91885369Y-61420750D01*
X91885368Y-61420745D01*
X91825787Y-61250473D01*
X91752205Y-61133369D01*
X91733204Y-61066133D01*
X91753571Y-60999298D01*
X91769508Y-60979726D01*
X92658506Y-60090727D01*
X92658511Y-60090724D01*
X92668714Y-60080520D01*
X92668716Y-60080520D01*
X92780520Y-59968716D01*
X92832187Y-59879225D01*
X92854058Y-59841343D01*
X92857360Y-59838195D01*
X92859452Y-59832086D01*
X92859573Y-59831791D01*
X92859577Y-59831785D01*
X92900500Y-59679058D01*
X92900500Y-59520943D01*
X92900500Y-55536654D01*
X93512501Y-55536654D01*
X93522819Y-55637652D01*
X93577046Y-55801300D01*
X93577051Y-55801311D01*
X93667552Y-55948034D01*
X93667555Y-55948038D01*
X93789461Y-56069944D01*
X93789465Y-56069947D01*
X93936188Y-56160448D01*
X93936199Y-56160453D01*
X94099847Y-56214680D01*
X94200851Y-56224999D01*
X94300000Y-56224998D01*
X94300000Y-55500000D01*
X93512501Y-55500000D01*
X93512501Y-55536654D01*
X92900500Y-55536654D01*
X92900500Y-54800097D01*
X92920185Y-54733058D01*
X92936819Y-54712416D01*
X92962416Y-54686819D01*
X93023739Y-54653334D01*
X93050097Y-54650500D01*
X93421298Y-54650500D01*
X93488337Y-54670185D01*
X93534092Y-54722989D01*
X93544036Y-54792147D01*
X93539004Y-54813503D01*
X93522819Y-54862346D01*
X93512500Y-54963345D01*
X93512500Y-55000000D01*
X94676000Y-55000000D01*
X94743039Y-55019685D01*
X94788794Y-55072489D01*
X94800000Y-55124000D01*
X94800000Y-56235962D01*
X94820298Y-56273135D01*
X94815314Y-56342827D01*
X94786814Y-56387174D01*
X94679191Y-56494797D01*
X94592210Y-56633225D01*
X94538212Y-56787544D01*
X94519909Y-56949996D01*
X94519909Y-56950003D01*
X94538212Y-57112455D01*
X94592210Y-57266774D01*
X94679192Y-57405204D01*
X94683533Y-57410647D01*
X94681157Y-57412541D01*
X94708180Y-57462030D01*
X94703196Y-57531722D01*
X94674695Y-57576069D01*
X94327584Y-57923181D01*
X94266261Y-57956666D01*
X94245583Y-57958889D01*
X94240943Y-57959500D01*
X94088213Y-58000423D01*
X94057397Y-58018216D01*
X94057396Y-58018216D01*
X93951287Y-58079477D01*
X93951282Y-58079481D01*
X93609479Y-58421284D01*
X93588762Y-58457169D01*
X93578179Y-58475500D01*
X93530423Y-58558215D01*
X93489499Y-58710943D01*
X93489499Y-58710945D01*
X93489499Y-58879046D01*
X93489500Y-58879059D01*
X93489500Y-59096325D01*
X93470494Y-59162297D01*
X93432210Y-59223224D01*
X93378212Y-59377544D01*
X93359909Y-59539996D01*
X93359909Y-59539999D01*
X93361282Y-59552188D01*
X93349225Y-59621009D01*
X93303162Y-59671604D01*
X93289462Y-59680054D01*
X93167553Y-59801964D01*
X93079551Y-59944637D01*
X93077900Y-59946121D01*
X93022819Y-60112347D01*
X93012500Y-60213345D01*
X93012500Y-60250000D01*
X93905741Y-60250000D01*
X93920543Y-60251668D01*
X93920618Y-60251007D01*
X94089996Y-60270091D01*
X94090000Y-60270091D01*
X94090001Y-60270091D01*
X94101859Y-60268754D01*
X94162116Y-60261965D01*
X94230937Y-60274019D01*
X94282317Y-60321367D01*
X94300000Y-60385185D01*
X94300000Y-60626000D01*
X94280315Y-60693039D01*
X94227511Y-60738794D01*
X94176000Y-60750000D01*
X93012501Y-60750000D01*
X93012501Y-60786654D01*
X93022819Y-60887652D01*
X93077046Y-61051300D01*
X93077051Y-61051311D01*
X93167552Y-61198034D01*
X93167555Y-61198038D01*
X93289461Y-61319944D01*
X93289465Y-61319947D01*
X93436188Y-61410448D01*
X93436199Y-61410453D01*
X93599847Y-61464680D01*
X93700851Y-61474999D01*
X93874979Y-61474999D01*
X93942019Y-61494683D01*
X93987774Y-61547487D01*
X93997718Y-61616645D01*
X93968693Y-61680201D01*
X93962661Y-61686680D01*
X93305890Y-62343451D01*
X93305884Y-62343458D01*
X93263734Y-62406542D01*
X93263734Y-62406543D01*
X93229223Y-62458191D01*
X93229222Y-62458193D01*
X93176421Y-62585667D01*
X93176418Y-62585677D01*
X93149500Y-62721004D01*
X93149500Y-62721007D01*
X93149500Y-65181006D01*
X93149500Y-65318994D01*
X93149500Y-65318996D01*
X93149499Y-65318996D01*
X93176418Y-65454322D01*
X93176421Y-65454332D01*
X93229222Y-65581807D01*
X93305887Y-65696545D01*
X93471661Y-65862319D01*
X93505146Y-65923642D01*
X93500162Y-65993334D01*
X93471661Y-66037681D01*
X92496162Y-67013181D01*
X92434839Y-67046666D01*
X92408481Y-67049500D01*
X75541519Y-67049500D01*
X75474480Y-67029815D01*
X75453838Y-67013181D01*
X75086819Y-66646162D01*
X75053334Y-66584839D01*
X75050500Y-66558481D01*
X75050500Y-66000000D01*
X76553085Y-66000000D01*
X76556064Y-66032792D01*
X76556067Y-66032802D01*
X76603927Y-66186392D01*
X76687163Y-66324080D01*
X76800919Y-66437836D01*
X76938603Y-66521070D01*
X77092207Y-66568934D01*
X77158957Y-66575000D01*
X77800000Y-66575000D01*
X78300000Y-66575000D01*
X78941043Y-66575000D01*
X79007792Y-66568934D01*
X79161396Y-66521070D01*
X79299080Y-66437836D01*
X79412836Y-66324080D01*
X79496072Y-66186392D01*
X79543932Y-66032802D01*
X79543935Y-66032792D01*
X79546914Y-66000000D01*
X78300000Y-66000000D01*
X78300000Y-66575000D01*
X77800000Y-66575000D01*
X77800000Y-66000000D01*
X76553085Y-66000000D01*
X75050500Y-66000000D01*
X75050500Y-65499999D01*
X76553085Y-65499999D01*
X76553085Y-65500000D01*
X77800000Y-65500000D01*
X78300000Y-65500000D01*
X79546915Y-65500000D01*
X79546914Y-65499999D01*
X79543935Y-65467207D01*
X79543932Y-65467197D01*
X79496072Y-65313607D01*
X79412836Y-65175919D01*
X79299080Y-65062163D01*
X79161396Y-64978929D01*
X79007792Y-64931065D01*
X78941043Y-64925000D01*
X78300000Y-64925000D01*
X78300000Y-65500000D01*
X77800000Y-65500000D01*
X77800000Y-64925000D01*
X77158957Y-64925000D01*
X77092207Y-64931065D01*
X76938603Y-64978929D01*
X76800919Y-65062163D01*
X76687163Y-65175919D01*
X76603927Y-65313607D01*
X76556067Y-65467197D01*
X76556064Y-65467207D01*
X76553085Y-65499999D01*
X75050500Y-65499999D01*
X75050500Y-63581010D01*
X75050500Y-63581007D01*
X75049746Y-63577218D01*
X75023580Y-63445672D01*
X75015385Y-63425887D01*
X74970777Y-63318192D01*
X74894112Y-63203454D01*
X73106551Y-61415893D01*
X73106545Y-61415888D01*
X73106543Y-61415886D01*
X73106540Y-61415884D01*
X73105354Y-61414911D01*
X73104608Y-61413950D01*
X73102236Y-61411578D01*
X73102535Y-61411278D01*
X73071626Y-61371454D01*
X72974035Y-61162171D01*
X72952891Y-61131973D01*
X72838494Y-60968597D01*
X72671402Y-60801506D01*
X72671396Y-60801501D01*
X72485842Y-60671575D01*
X72442217Y-60616998D01*
X72435023Y-60547500D01*
X72466546Y-60485145D01*
X72485842Y-60468425D01*
X72538885Y-60431284D01*
X72671401Y-60338495D01*
X72838495Y-60171401D01*
X72974035Y-59977830D01*
X72976707Y-59972097D01*
X73022878Y-59919658D01*
X73089091Y-59900500D01*
X74813331Y-59900500D01*
X74813347Y-59900501D01*
X74820943Y-59900501D01*
X74979054Y-59900501D01*
X74979057Y-59900501D01*
X75131785Y-59859577D01*
X75195664Y-59822696D01*
X75268716Y-59780520D01*
X75380520Y-59668716D01*
X75380520Y-59668714D01*
X75390724Y-59658511D01*
X75390728Y-59658506D01*
X75896006Y-59153228D01*
X75896011Y-59153224D01*
X75906214Y-59143020D01*
X75906216Y-59143020D01*
X76018020Y-59031216D01*
X76090614Y-58905479D01*
X76090615Y-58905478D01*
X76093236Y-58900936D01*
X76097077Y-58894285D01*
X76138000Y-58741557D01*
X76138000Y-58645110D01*
X76157685Y-58578071D01*
X76196901Y-58539573D01*
X76248350Y-58507840D01*
X76362319Y-58393871D01*
X76423642Y-58360386D01*
X76493334Y-58365370D01*
X76537681Y-58393871D01*
X76651650Y-58507840D01*
X76703097Y-58539572D01*
X76749821Y-58591517D01*
X76762000Y-58645110D01*
X76762000Y-63075830D01*
X76761999Y-63075848D01*
X76761999Y-63149014D01*
X76742314Y-63216053D01*
X76725680Y-63236695D01*
X76686767Y-63275607D01*
X76686766Y-63275608D01*
X76603469Y-63413397D01*
X76555569Y-63567116D01*
X76549500Y-63633911D01*
X76549500Y-64066098D01*
X76555568Y-64132882D01*
X76555571Y-64132893D01*
X76603467Y-64286598D01*
X76603468Y-64286600D01*
X76603469Y-64286602D01*
X76686764Y-64424388D01*
X76686765Y-64424389D01*
X76686767Y-64424392D01*
X76800608Y-64538233D01*
X76800610Y-64538234D01*
X76800612Y-64538236D01*
X76938398Y-64621531D01*
X77092113Y-64669430D01*
X77158909Y-64675500D01*
X78941090Y-64675499D01*
X78941097Y-64675499D01*
X79007882Y-64669431D01*
X79007885Y-64669430D01*
X79007887Y-64669430D01*
X79161602Y-64621531D01*
X79299388Y-64538236D01*
X79413236Y-64424388D01*
X79496531Y-64286602D01*
X79544430Y-64132887D01*
X79550500Y-64066091D01*
X79550499Y-63633910D01*
X79550499Y-63633909D01*
X79550499Y-63633901D01*
X79544431Y-63567117D01*
X79544428Y-63567106D01*
X79496532Y-63413401D01*
X79496531Y-63413400D01*
X79496531Y-63413398D01*
X79413236Y-63275612D01*
X79413234Y-63275610D01*
X79413233Y-63275608D01*
X79299391Y-63161766D01*
X79161602Y-63078469D01*
X79059249Y-63046575D01*
X79007887Y-63030570D01*
X79007885Y-63030569D01*
X79007883Y-63030569D01*
X78961117Y-63026319D01*
X78941091Y-63024500D01*
X78941088Y-63024500D01*
X78125097Y-63024500D01*
X78058058Y-63004815D01*
X78037416Y-62988181D01*
X77999319Y-62950084D01*
X77965834Y-62888761D01*
X77963000Y-62862403D01*
X77963000Y-58645110D01*
X77982685Y-58578071D01*
X78021901Y-58539573D01*
X78073350Y-58507840D01*
X78195340Y-58385850D01*
X78285908Y-58239016D01*
X78340174Y-58075253D01*
X78350500Y-57974177D01*
X78350499Y-57400824D01*
X78340174Y-57299747D01*
X78285908Y-57135984D01*
X78195340Y-56989150D01*
X78090121Y-56883931D01*
X78056636Y-56822608D01*
X78061620Y-56752916D01*
X78090121Y-56708569D01*
X78102975Y-56695715D01*
X78207840Y-56590850D01*
X78298408Y-56444016D01*
X78352674Y-56280253D01*
X78363000Y-56179177D01*
X78362999Y-55605824D01*
X78352674Y-55504747D01*
X78298408Y-55340984D01*
X78207840Y-55194150D01*
X78085850Y-55072160D01*
X77968860Y-55000000D01*
X77939018Y-54981593D01*
X77939013Y-54981591D01*
X77937569Y-54981112D01*
X77775253Y-54927326D01*
X77775251Y-54927325D01*
X77674178Y-54917000D01*
X77075830Y-54917000D01*
X77075812Y-54917001D01*
X76974747Y-54927325D01*
X76810984Y-54981592D01*
X76810981Y-54981593D01*
X76664151Y-55072159D01*
X76549827Y-55186483D01*
X76488504Y-55219967D01*
X76418812Y-55214983D01*
X76374465Y-55186482D01*
X76260538Y-55072555D01*
X76260534Y-55072552D01*
X76113811Y-54982051D01*
X76113800Y-54982046D01*
X75950152Y-54927819D01*
X75849154Y-54917500D01*
X75800000Y-54917500D01*
X75800000Y-56018500D01*
X75780315Y-56085539D01*
X75727511Y-56131294D01*
X75676000Y-56142500D01*
X74562501Y-56142500D01*
X74562501Y-56179154D01*
X74572819Y-56280152D01*
X74627046Y-56443800D01*
X74627051Y-56443811D01*
X74717552Y-56590534D01*
X74717555Y-56590538D01*
X74822732Y-56695715D01*
X74856217Y-56757038D01*
X74851233Y-56826730D01*
X74822733Y-56871077D01*
X74704659Y-56989151D01*
X74614093Y-57135981D01*
X74614092Y-57135984D01*
X74559826Y-57299747D01*
X74559826Y-57299748D01*
X74559825Y-57299748D01*
X74549500Y-57400815D01*
X74549500Y-57974169D01*
X74549501Y-57974187D01*
X74559825Y-58075252D01*
X74614092Y-58239015D01*
X74614093Y-58239018D01*
X74704661Y-58385851D01*
X74747106Y-58428296D01*
X74780591Y-58489619D01*
X74775607Y-58559311D01*
X74747107Y-58603656D01*
X74687582Y-58663182D01*
X74626262Y-58696666D01*
X74599903Y-58699500D01*
X73089091Y-58699500D01*
X73022052Y-58679815D01*
X72976711Y-58627909D01*
X72974037Y-58622175D01*
X72974034Y-58622170D01*
X72974033Y-58622169D01*
X72893979Y-58507838D01*
X72838494Y-58428597D01*
X72671402Y-58261506D01*
X72671395Y-58261501D01*
X72477834Y-58125967D01*
X72477830Y-58125965D01*
X72414644Y-58096501D01*
X72263663Y-58026097D01*
X72263659Y-58026096D01*
X72263655Y-58026094D01*
X72035413Y-57964938D01*
X72035403Y-57964936D01*
X71800001Y-57944341D01*
X71799999Y-57944341D01*
X71564596Y-57964936D01*
X71564586Y-57964938D01*
X71336344Y-58026094D01*
X71336335Y-58026098D01*
X71122171Y-58125964D01*
X71122169Y-58125965D01*
X70928597Y-58261505D01*
X70761505Y-58428597D01*
X70625965Y-58622169D01*
X70625964Y-58622171D01*
X70526098Y-58836335D01*
X70526094Y-58836344D01*
X70464938Y-59064586D01*
X70464936Y-59064596D01*
X70444341Y-59299999D01*
X70444341Y-59300000D01*
X70464936Y-59535403D01*
X70464938Y-59535413D01*
X70526094Y-59763655D01*
X70526096Y-59763659D01*
X70526097Y-59763663D01*
X70589906Y-59900501D01*
X70625965Y-59977830D01*
X70625967Y-59977834D01*
X70761501Y-60171395D01*
X70761506Y-60171402D01*
X70928597Y-60338493D01*
X70928603Y-60338498D01*
X71114158Y-60468425D01*
X71157783Y-60523002D01*
X71164977Y-60592500D01*
X71133454Y-60654855D01*
X71114158Y-60671575D01*
X70928597Y-60801505D01*
X70761505Y-60968597D01*
X70625965Y-61162169D01*
X70625964Y-61162171D01*
X70552392Y-61319947D01*
X70528375Y-61371453D01*
X70526098Y-61376335D01*
X70526094Y-61376344D01*
X70464938Y-61604586D01*
X70464936Y-61604596D01*
X70444341Y-61839999D01*
X70444341Y-61840000D01*
X70464936Y-62075403D01*
X70464938Y-62075413D01*
X70526094Y-62303655D01*
X70526096Y-62303659D01*
X70526097Y-62303663D01*
X70596355Y-62454332D01*
X70625965Y-62517830D01*
X70625967Y-62517834D01*
X70761501Y-62711395D01*
X70761506Y-62711402D01*
X70883818Y-62833714D01*
X70917303Y-62895037D01*
X70912319Y-62964729D01*
X70870447Y-63020662D01*
X70839471Y-63037577D01*
X70707912Y-63086646D01*
X70707906Y-63086649D01*
X70592812Y-63172809D01*
X70592809Y-63172812D01*
X70506649Y-63287906D01*
X70506645Y-63287913D01*
X70456403Y-63422620D01*
X70456401Y-63422627D01*
X70450000Y-63482155D01*
X70450000Y-64130000D01*
X71366988Y-64130000D01*
X71334075Y-64187007D01*
X71300000Y-64314174D01*
X71300000Y-64445826D01*
X71334075Y-64572993D01*
X71366988Y-64630000D01*
X70450000Y-64630000D01*
X70450000Y-65277844D01*
X70456401Y-65337372D01*
X70456403Y-65337379D01*
X70506645Y-65472086D01*
X70506649Y-65472093D01*
X70592809Y-65587187D01*
X70592812Y-65587190D01*
X70707906Y-65673350D01*
X70707913Y-65673354D01*
X70842620Y-65723596D01*
X70842627Y-65723598D01*
X70902155Y-65729999D01*
X70902172Y-65730000D01*
X71550000Y-65730000D01*
X71550000Y-64813012D01*
X71607007Y-64845925D01*
X71734174Y-64880000D01*
X71865826Y-64880000D01*
X71992993Y-64845925D01*
X72050000Y-64813012D01*
X72050000Y-65730000D01*
X72697828Y-65730000D01*
X72697844Y-65729999D01*
X72757372Y-65723598D01*
X72757379Y-65723596D01*
X72892086Y-65673354D01*
X72892093Y-65673350D01*
X73007187Y-65587190D01*
X73007190Y-65587187D01*
X73093350Y-65472093D01*
X73093354Y-65472086D01*
X73143596Y-65337379D01*
X73143598Y-65337372D01*
X73149999Y-65277844D01*
X73150000Y-65277827D01*
X73150000Y-64630000D01*
X72233012Y-64630000D01*
X72265925Y-64572993D01*
X72300000Y-64445826D01*
X72300000Y-64314174D01*
X72265925Y-64187007D01*
X72233012Y-64130000D01*
X73150000Y-64130000D01*
X73150000Y-63740019D01*
X73169685Y-63672980D01*
X73222489Y-63627225D01*
X73291647Y-63617281D01*
X73355203Y-63646306D01*
X73361681Y-63652338D01*
X73613181Y-63903838D01*
X73646666Y-63965161D01*
X73649500Y-63991519D01*
X73649500Y-66831006D01*
X73649500Y-66968994D01*
X73649500Y-66968996D01*
X73649499Y-66968996D01*
X73676418Y-67104322D01*
X73676421Y-67104332D01*
X73729222Y-67231807D01*
X73805887Y-67346545D01*
X74753454Y-68294112D01*
X74753457Y-68294114D01*
X74868189Y-68370775D01*
X74886098Y-68378193D01*
X74897048Y-68382729D01*
X74951451Y-68426570D01*
X74973516Y-68492864D01*
X74956237Y-68560564D01*
X74905099Y-68608174D01*
X74849595Y-68621290D01*
X70124500Y-68621290D01*
X70057461Y-68601605D01*
X70011706Y-68548801D01*
X70000500Y-68497290D01*
X70000500Y-55605845D01*
X74562500Y-55605845D01*
X74562500Y-55642500D01*
X75300000Y-55642500D01*
X75300000Y-54917500D01*
X75299999Y-54917499D01*
X75250861Y-54917500D01*
X75250843Y-54917501D01*
X75149847Y-54927819D01*
X74986199Y-54982046D01*
X74986188Y-54982051D01*
X74839465Y-55072552D01*
X74839461Y-55072555D01*
X74717555Y-55194461D01*
X74717552Y-55194465D01*
X74627051Y-55341188D01*
X74627046Y-55341199D01*
X74572819Y-55504847D01*
X74562500Y-55605845D01*
X70000500Y-55605845D01*
X70000500Y-51309999D01*
X70444341Y-51309999D01*
X70444341Y-51310000D01*
X70464936Y-51545403D01*
X70464938Y-51545413D01*
X70526094Y-51773655D01*
X70526096Y-51773659D01*
X70526097Y-51773663D01*
X70595112Y-51921666D01*
X70625965Y-51987830D01*
X70625967Y-51987834D01*
X70734281Y-52142521D01*
X70759100Y-52177967D01*
X70761501Y-52181395D01*
X70761506Y-52181402D01*
X70928597Y-52348493D01*
X70928603Y-52348498D01*
X71114158Y-52478425D01*
X71157783Y-52533002D01*
X71164977Y-52602500D01*
X71133454Y-52664855D01*
X71114158Y-52681575D01*
X70928597Y-52811505D01*
X70761505Y-52978597D01*
X70625965Y-53172169D01*
X70625964Y-53172171D01*
X70526098Y-53386335D01*
X70526094Y-53386344D01*
X70464938Y-53614586D01*
X70464936Y-53614596D01*
X70444341Y-53849999D01*
X70444341Y-53850000D01*
X70464936Y-54085403D01*
X70464938Y-54085413D01*
X70526094Y-54313655D01*
X70526096Y-54313659D01*
X70526097Y-54313663D01*
X70580188Y-54429661D01*
X70625965Y-54527830D01*
X70625967Y-54527834D01*
X70711860Y-54650501D01*
X70761505Y-54721401D01*
X70928599Y-54888495D01*
X70985288Y-54928189D01*
X71122165Y-55024032D01*
X71122167Y-55024033D01*
X71122170Y-55024035D01*
X71336337Y-55123903D01*
X71564592Y-55185063D01*
X71752918Y-55201539D01*
X71799999Y-55205659D01*
X71800000Y-55205659D01*
X71800001Y-55205659D01*
X71839234Y-55202226D01*
X72035408Y-55185063D01*
X72263663Y-55123903D01*
X72477830Y-55024035D01*
X72671401Y-54888495D01*
X72838495Y-54721401D01*
X72921136Y-54603376D01*
X72975713Y-54559752D01*
X73022711Y-54550500D01*
X77368996Y-54550500D01*
X77482962Y-54527830D01*
X77504328Y-54523580D01*
X77631811Y-54470775D01*
X77739736Y-54398661D01*
X77806414Y-54377784D01*
X77873794Y-54396269D01*
X77911729Y-54432873D01*
X77930885Y-54461542D01*
X77930888Y-54461546D01*
X78983181Y-55513838D01*
X79016666Y-55575161D01*
X79019500Y-55601519D01*
X79019500Y-62318993D01*
X79019500Y-62318995D01*
X79019499Y-62318995D01*
X79046418Y-62454322D01*
X79046421Y-62454332D01*
X79099221Y-62581804D01*
X79099228Y-62581817D01*
X79175885Y-62696541D01*
X79175888Y-62696545D01*
X79273454Y-62794111D01*
X79273462Y-62794117D01*
X79353711Y-62847738D01*
X79372502Y-62863159D01*
X80358299Y-63848956D01*
X80391784Y-63910279D01*
X80386800Y-63979971D01*
X80344928Y-64035904D01*
X80334768Y-64042754D01*
X80220608Y-64111766D01*
X80106766Y-64225608D01*
X80023469Y-64363397D01*
X79975569Y-64517116D01*
X79969500Y-64583911D01*
X79969500Y-65016098D01*
X79975568Y-65082882D01*
X79975571Y-65082893D01*
X80023467Y-65236598D01*
X80023468Y-65236600D01*
X80023469Y-65236602D01*
X80073277Y-65318994D01*
X80106766Y-65374391D01*
X80220608Y-65488233D01*
X80220610Y-65488234D01*
X80220612Y-65488236D01*
X80358398Y-65571531D01*
X80512113Y-65619430D01*
X80578909Y-65625500D01*
X82361090Y-65625499D01*
X82361097Y-65625499D01*
X82427882Y-65619431D01*
X82427885Y-65619430D01*
X82427887Y-65619430D01*
X82581602Y-65571531D01*
X82719388Y-65488236D01*
X82833236Y-65374388D01*
X82916531Y-65236602D01*
X82964430Y-65082887D01*
X82970500Y-65016091D01*
X82970499Y-64583910D01*
X82970499Y-64583909D01*
X82970499Y-64583901D01*
X82964431Y-64517117D01*
X82964428Y-64517106D01*
X82916532Y-64363401D01*
X82916531Y-64363400D01*
X82916531Y-64363398D01*
X82833236Y-64225612D01*
X82833234Y-64225610D01*
X82833233Y-64225608D01*
X82719391Y-64111766D01*
X82699509Y-64099747D01*
X82581602Y-64028469D01*
X82427887Y-63980570D01*
X82427885Y-63980569D01*
X82427883Y-63980569D01*
X82381117Y-63976319D01*
X82361091Y-63974500D01*
X82361088Y-63974500D01*
X82286883Y-63974500D01*
X82219844Y-63954815D01*
X82174089Y-63902011D01*
X82165266Y-63874692D01*
X82146785Y-63781785D01*
X82146784Y-63781781D01*
X82143580Y-63765672D01*
X82143580Y-63765671D01*
X82101052Y-63663000D01*
X82096636Y-63652338D01*
X82090778Y-63638195D01*
X82090771Y-63638182D01*
X82014115Y-63523459D01*
X81972811Y-63482155D01*
X81916542Y-63425886D01*
X80456819Y-61966162D01*
X80423334Y-61904839D01*
X80420500Y-61878481D01*
X80420500Y-55191006D01*
X80411655Y-55146544D01*
X80411655Y-55146541D01*
X80396938Y-55072555D01*
X80393580Y-55055672D01*
X80340775Y-54928189D01*
X80264114Y-54813457D01*
X80264112Y-54813454D01*
X79211819Y-53761161D01*
X79178334Y-53699838D01*
X79175500Y-53673480D01*
X79175500Y-53605707D01*
X79195185Y-53538668D01*
X79218380Y-53513084D01*
X79218243Y-53512947D01*
X79221050Y-53510139D01*
X79222595Y-53508436D01*
X79223339Y-53507846D01*
X79223350Y-53507840D01*
X79345340Y-53385850D01*
X79346233Y-53384401D01*
X79347104Y-53383617D01*
X79349821Y-53380183D01*
X79350407Y-53380647D01*
X79398180Y-53337679D01*
X79451771Y-53325500D01*
X80179092Y-53325500D01*
X80246131Y-53345185D01*
X80284636Y-53389271D01*
X80286395Y-53388187D01*
X80290185Y-53394331D01*
X80290186Y-53394334D01*
X80382288Y-53543656D01*
X80506344Y-53667712D01*
X80655666Y-53759814D01*
X80822203Y-53814999D01*
X80924991Y-53825500D01*
X81625008Y-53825499D01*
X81625016Y-53825498D01*
X81625019Y-53825498D01*
X81682893Y-53819586D01*
X81727797Y-53814999D01*
X81894334Y-53759814D01*
X82043656Y-53667712D01*
X82167712Y-53543656D01*
X82259814Y-53394334D01*
X82314999Y-53227797D01*
X82325500Y-53125009D01*
X82325499Y-52424992D01*
X82314999Y-52322203D01*
X82259814Y-52155666D01*
X82167712Y-52006344D01*
X82043656Y-51882288D01*
X81894334Y-51790186D01*
X81727797Y-51735001D01*
X81727795Y-51735000D01*
X81625010Y-51724500D01*
X80924998Y-51724500D01*
X80924980Y-51724501D01*
X80822203Y-51735000D01*
X80822200Y-51735001D01*
X80655668Y-51790185D01*
X80655663Y-51790187D01*
X80506342Y-51882289D01*
X80500451Y-51888181D01*
X80439128Y-51921666D01*
X80412770Y-51924500D01*
X79451771Y-51924500D01*
X79384732Y-51904815D01*
X79350132Y-51869570D01*
X79349821Y-51869817D01*
X79347528Y-51866917D01*
X79346233Y-51865598D01*
X79345340Y-51864150D01*
X79331371Y-51850181D01*
X79297886Y-51788858D01*
X79302870Y-51719166D01*
X79331371Y-51674819D01*
X79345340Y-51660850D01*
X79435908Y-51514016D01*
X79490174Y-51350253D01*
X79500500Y-51249177D01*
X79500499Y-50550824D01*
X79490174Y-50449747D01*
X79435908Y-50285984D01*
X79426977Y-50271505D01*
X79422716Y-50264596D01*
X79404276Y-50197204D01*
X79425199Y-50130541D01*
X79478841Y-50085771D01*
X79528255Y-50075500D01*
X80100501Y-50075500D01*
X80167540Y-50095185D01*
X80213295Y-50147989D01*
X80224501Y-50199500D01*
X80224501Y-50325018D01*
X80235000Y-50427796D01*
X80235001Y-50427799D01*
X80275764Y-50550812D01*
X80290186Y-50594334D01*
X80382288Y-50743656D01*
X80506344Y-50867712D01*
X80655666Y-50959814D01*
X80822203Y-51014999D01*
X80924991Y-51025500D01*
X81625008Y-51025499D01*
X81625016Y-51025498D01*
X81625019Y-51025498D01*
X81681302Y-51019748D01*
X81727797Y-51014999D01*
X81894334Y-50959814D01*
X82043656Y-50867712D01*
X82167712Y-50743656D01*
X82259814Y-50594334D01*
X82314999Y-50427797D01*
X82325500Y-50325009D01*
X82325499Y-49624992D01*
X82314999Y-49522203D01*
X82259814Y-49355666D01*
X82167712Y-49206344D01*
X82043656Y-49082288D01*
X81894334Y-48990186D01*
X81727797Y-48935001D01*
X81727795Y-48935000D01*
X81625016Y-48924500D01*
X81625009Y-48924500D01*
X81266519Y-48924500D01*
X81199480Y-48904815D01*
X81178842Y-48888185D01*
X81121543Y-48830886D01*
X81006811Y-48754225D01*
X81006812Y-48754225D01*
X81006807Y-48754222D01*
X80879332Y-48701421D01*
X80879322Y-48701418D01*
X80743996Y-48674500D01*
X80743994Y-48674500D01*
X80743993Y-48674500D01*
X78700494Y-48674500D01*
X78634523Y-48655494D01*
X78624525Y-48649212D01*
X78454254Y-48589631D01*
X78454249Y-48589630D01*
X78275004Y-48569435D01*
X78274996Y-48569435D01*
X78095750Y-48589630D01*
X78095745Y-48589631D01*
X77925476Y-48649211D01*
X77772737Y-48745184D01*
X77645184Y-48872737D01*
X77549211Y-49025476D01*
X77489631Y-49195745D01*
X77489630Y-49195750D01*
X77469435Y-49374996D01*
X77469435Y-49375003D01*
X77489630Y-49554249D01*
X77489631Y-49554254D01*
X77549212Y-49724525D01*
X77555492Y-49734519D01*
X77574500Y-49800493D01*
X77574500Y-50385454D01*
X77568206Y-50424457D01*
X77559826Y-50449744D01*
X77559825Y-50449748D01*
X77549500Y-50550815D01*
X77549500Y-51249169D01*
X77549501Y-51249187D01*
X77559825Y-51350252D01*
X77568390Y-51376098D01*
X77614092Y-51514016D01*
X77674224Y-51611506D01*
X77704661Y-51660851D01*
X77718629Y-51674819D01*
X77752114Y-51736142D01*
X77747130Y-51805834D01*
X77718629Y-51850181D01*
X77704661Y-51864148D01*
X77614093Y-52010981D01*
X77614092Y-52010984D01*
X77559826Y-52174747D01*
X77559826Y-52174748D01*
X77559825Y-52174748D01*
X77549500Y-52275815D01*
X77549500Y-52558480D01*
X77529815Y-52625519D01*
X77513181Y-52646161D01*
X77046162Y-53113181D01*
X76984839Y-53146666D01*
X76958481Y-53149500D01*
X73022711Y-53149500D01*
X72955672Y-53129815D01*
X72921136Y-53096623D01*
X72838494Y-52978597D01*
X72671402Y-52811506D01*
X72671396Y-52811501D01*
X72485842Y-52681575D01*
X72442217Y-52626998D01*
X72435023Y-52557500D01*
X72466546Y-52495145D01*
X72485842Y-52478425D01*
X72562169Y-52424980D01*
X72671401Y-52348495D01*
X72838495Y-52181401D01*
X72974035Y-51987830D01*
X73073903Y-51773663D01*
X73135063Y-51545408D01*
X73155659Y-51310000D01*
X73135063Y-51074592D01*
X73073903Y-50846337D01*
X72974035Y-50632171D01*
X72947542Y-50594334D01*
X72838494Y-50438597D01*
X72671402Y-50271506D01*
X72671395Y-50271501D01*
X72477834Y-50135967D01*
X72477830Y-50135965D01*
X72390377Y-50095185D01*
X72263663Y-50036097D01*
X72263659Y-50036096D01*
X72263655Y-50036094D01*
X72035413Y-49974938D01*
X72035403Y-49974936D01*
X71800001Y-49954341D01*
X71799999Y-49954341D01*
X71564596Y-49974936D01*
X71564586Y-49974938D01*
X71336344Y-50036094D01*
X71336335Y-50036098D01*
X71122171Y-50135964D01*
X71122169Y-50135965D01*
X70928597Y-50271505D01*
X70761505Y-50438597D01*
X70625965Y-50632169D01*
X70625964Y-50632171D01*
X70526098Y-50846335D01*
X70526094Y-50846344D01*
X70464938Y-51074586D01*
X70464936Y-51074596D01*
X70444341Y-51309999D01*
X70000500Y-51309999D01*
X70000500Y-47124500D01*
X70020185Y-47057461D01*
X70072989Y-47011706D01*
X70124500Y-47000500D01*
X106998761Y-47000500D01*
X107065800Y-47020185D01*
G37*
G04 #@! TD.AperFunction*
G04 #@! TA.AperFunction,Conductor*
G36*
X97838773Y-57015658D02*
G01*
X97886384Y-57066795D01*
X97899500Y-57122300D01*
X97899500Y-57575500D01*
X97879815Y-57642539D01*
X97827011Y-57688294D01*
X97775500Y-57699500D01*
X97430520Y-57699500D01*
X97363481Y-57679815D01*
X97317726Y-57627011D01*
X97307782Y-57557853D01*
X97336807Y-57494297D01*
X97342839Y-57487819D01*
X97544111Y-57286546D01*
X97544112Y-57286545D01*
X97544114Y-57286543D01*
X97620775Y-57171811D01*
X97660939Y-57074847D01*
X97704780Y-57020444D01*
X97771074Y-56998379D01*
X97838773Y-57015658D01*
G37*
G04 #@! TD.AperFunction*
M02*
