G04 #@! TF.GenerationSoftware,KiCad,Pcbnew,8.0.4*
G04 #@! TF.CreationDate,2024-09-19T17:48:01+02:00*
G04 #@! TF.ProjectId,vibration-motor,76696272-6174-4696-9f6e-2d6d6f746f72,rev?*
G04 #@! TF.SameCoordinates,Original*
G04 #@! TF.FileFunction,Soldermask,Top*
G04 #@! TF.FilePolarity,Negative*
%FSLAX46Y46*%
G04 Gerber Fmt 4.6, Leading zero omitted, Abs format (unit mm)*
G04 Created by KiCad (PCBNEW 8.0.4) date 2024-09-19 17:48:01*
%MOMM*%
%LPD*%
G01*
G04 APERTURE LIST*
G04 Aperture macros list*
%AMRoundRect*
0 Rectangle with rounded corners*
0 $1 Rounding radius*
0 $2 $3 $4 $5 $6 $7 $8 $9 X,Y pos of 4 corners*
0 Add a 4 corners polygon primitive as box body*
4,1,4,$2,$3,$4,$5,$6,$7,$8,$9,$2,$3,0*
0 Add four circle primitives for the rounded corners*
1,1,$1+$1,$2,$3*
1,1,$1+$1,$4,$5*
1,1,$1+$1,$6,$7*
1,1,$1+$1,$8,$9*
0 Add four rect primitives between the rounded corners*
20,1,$1+$1,$2,$3,$4,$5,0*
20,1,$1+$1,$4,$5,$6,$7,0*
20,1,$1+$1,$6,$7,$8,$9,0*
20,1,$1+$1,$8,$9,$2,$3,0*%
G04 Aperture macros list end*
%ADD10R,1.700000X1.700000*%
%ADD11O,1.700000X1.700000*%
%ADD12RoundRect,0.237500X0.250000X0.237500X-0.250000X0.237500X-0.250000X-0.237500X0.250000X-0.237500X0*%
%ADD13RoundRect,0.237500X-0.250000X-0.237500X0.250000X-0.237500X0.250000X0.237500X-0.250000X0.237500X0*%
%ADD14RoundRect,0.237500X0.237500X-0.300000X0.237500X0.300000X-0.237500X0.300000X-0.237500X-0.300000X0*%
%ADD15C,1.700000*%
%ADD16RoundRect,0.237500X0.237500X-0.250000X0.237500X0.250000X-0.237500X0.250000X-0.237500X-0.250000X0*%
%ADD17C,0.250000*%
%ADD18C,0.200000*%
%ADD19RoundRect,0.162500X-0.837500X-0.162500X0.837500X-0.162500X0.837500X0.162500X-0.837500X0.162500X0*%
%ADD20RoundRect,0.237500X0.300000X0.237500X-0.300000X0.237500X-0.300000X-0.237500X0.300000X-0.237500X0*%
%ADD21RoundRect,0.250000X-0.300000X0.300000X-0.300000X-0.300000X0.300000X-0.300000X0.300000X0.300000X0*%
%ADD22RoundRect,0.237500X-0.300000X-0.237500X0.300000X-0.237500X0.300000X0.237500X-0.300000X0.237500X0*%
G04 APERTURE END LIST*
D10*
X71800000Y-64380000D03*
D11*
X71800000Y-61840000D03*
X71800000Y-59300000D03*
D12*
X77375000Y-55892500D03*
X75550000Y-55892500D03*
D13*
X75537500Y-57687500D03*
X77362500Y-57687500D03*
D14*
X78525000Y-52625000D03*
X78525000Y-50900000D03*
D15*
X105150000Y-48975000D03*
D11*
X105150000Y-51515000D03*
X105150000Y-54055000D03*
X105150000Y-56595000D03*
X105150000Y-59135000D03*
X105150000Y-61675000D03*
X105150000Y-64215000D03*
D10*
X105150000Y-66755000D03*
D16*
X95750000Y-64500000D03*
X95750000Y-62675000D03*
D15*
X95740000Y-52650000D03*
D11*
X93200000Y-52650000D03*
D17*
X96400000Y-58250000D03*
X96000000Y-58250000D03*
X95600000Y-58250000D03*
X96400000Y-57850000D03*
X96000000Y-57850000D03*
X95600000Y-57850000D03*
X96400000Y-57450000D03*
D18*
X96000000Y-57450000D03*
D17*
X95600000Y-57450000D03*
D19*
X78050000Y-63850000D03*
X78050000Y-65750000D03*
X81470000Y-64800000D03*
D16*
X99250000Y-64500000D03*
X99250000Y-62675000D03*
D15*
X71800000Y-51310000D03*
D11*
X71800000Y-53850000D03*
D16*
X97500000Y-64500000D03*
X97500000Y-62675000D03*
D20*
X96275000Y-55250000D03*
X94550000Y-55250000D03*
D21*
X81275000Y-49975000D03*
X81275000Y-52775000D03*
D22*
X94050000Y-60500000D03*
X95775000Y-60500000D03*
M02*
