M48
; DRILL file {KiCad 8.0.4} date 2024-09-19T17:48:05+0200
; FORMAT={-:-/ absolute / metric / decimal}
; #@! TF.CreationDate,2024-09-19T17:48:05+02:00
; #@! TF.GenerationSoftware,Kicad,Pcbnew,8.0.4
; #@! TF.FileFunction,Plated,1,2,PTH
FMAT,2
METRIC
; #@! TA.AperFunction,Plated,PTH,ViaDrill
T1C0.300
; #@! TA.AperFunction,Plated,PTH,ComponentDrill
T2C1.000
%
G90
G05
T1
X72.0Y-66.6
X78.275Y-49.375
X91.1Y-61.6
X91.25Y-58.9
X92.8Y-61.65
X93.44Y-57.73
X94.09Y-59.54
X94.6Y-63.55
X95.07Y-59.0
X95.25Y-56.95
X97.5Y-59.21
X97.575Y-57.65
X97.6Y-54.75
X98.5Y-67.0
X99.25Y-59.6
X101.7Y-52.95
X103.75Y-65.5
T2
X71.8Y-51.31
X71.8Y-53.85
X71.8Y-59.3
X71.8Y-61.84
X71.8Y-64.38
X93.2Y-52.65
X95.74Y-52.65
X105.15Y-48.975
X105.15Y-51.515
X105.15Y-54.055
X105.15Y-56.595
X105.15Y-59.135
X105.15Y-61.675
X105.15Y-64.215
X105.15Y-66.755
M30
