%TF.GenerationSoftware,KiCad,Pcbnew,8.0.4*%
%TF.CreationDate,2024-09-19T17:48:03+02:00*%
%TF.ProjectId,vibration-motor,76696272-6174-4696-9f6e-2d6d6f746f72,rev?*%
%TF.SameCoordinates,Original*%
%TF.FileFunction,Drillmap*%
%TF.FilePolarity,Positive*%
%FSLAX45Y45*%
G04 Gerber Fmt 4.5, Leading zero omitted, Abs format (unit mm)*
G04 Created by KiCad (PCBNEW 8.0.4) date 2024-09-19 17:48:03*
%MOMM*%
%LPD*%
G01*
G04 APERTURE LIST*
%ADD10C,0.050000*%
%ADD11C,0.200000*%
%ADD12C,0.100000*%
G04 APERTURE END LIST*
D10*
X10712326Y-4650000D02*
G75*
G02*
X10762330Y-4700000I4J-50000D01*
G01*
X6950000Y-4700000D02*
G75*
G02*
X7000000Y-4650000I50000J0D01*
G01*
X10762326Y-6862179D02*
G75*
G02*
X10712326Y-6912176I-49996J-1D01*
G01*
X7000000Y-6912179D02*
G75*
G02*
X6950001Y-6862179I0J49999D01*
G01*
X7000000Y-4650000D02*
X10712326Y-4650000D01*
X10762326Y-4700000D02*
X10762326Y-6862179D01*
X6950000Y-6862179D02*
X6950000Y-4700000D01*
X10712326Y-6912179D02*
X7000000Y-6912179D01*
D11*
D12*
X7185000Y-6645000D02*
X7215000Y-6675000D01*
X7215000Y-6645000D02*
X7185000Y-6675000D01*
X7812500Y-4922500D02*
X7842500Y-4952500D01*
X7842500Y-4922500D02*
X7812500Y-4952500D01*
X9095000Y-6145000D02*
X9125000Y-6175000D01*
X9125000Y-6145000D02*
X9095000Y-6175000D01*
X9110000Y-5875000D02*
X9140000Y-5905000D01*
X9140000Y-5875000D02*
X9110000Y-5905000D01*
X9265000Y-6150000D02*
X9295000Y-6180000D01*
X9295000Y-6150000D02*
X9265000Y-6180000D01*
X9329000Y-5758000D02*
X9359000Y-5788000D01*
X9359000Y-5758000D02*
X9329000Y-5788000D01*
X9394000Y-5939000D02*
X9424000Y-5969000D01*
X9424000Y-5939000D02*
X9394000Y-5969000D01*
X9445000Y-6340000D02*
X9475000Y-6370000D01*
X9475000Y-6340000D02*
X9445000Y-6370000D01*
X9492000Y-5885000D02*
X9522000Y-5915000D01*
X9522000Y-5885000D02*
X9492000Y-5915000D01*
X9510000Y-5680000D02*
X9540000Y-5710000D01*
X9540000Y-5680000D02*
X9510000Y-5710000D01*
X9735000Y-5906000D02*
X9765000Y-5936000D01*
X9765000Y-5906000D02*
X9735000Y-5936000D01*
X9742500Y-5750000D02*
X9772500Y-5780000D01*
X9772500Y-5750000D02*
X9742500Y-5780000D01*
X9745000Y-5460000D02*
X9775000Y-5490000D01*
X9775000Y-5460000D02*
X9745000Y-5490000D01*
X9835000Y-6685000D02*
X9865000Y-6715000D01*
X9865000Y-6685000D02*
X9835000Y-6715000D01*
X9910000Y-5945000D02*
X9940000Y-5975000D01*
X9940000Y-5945000D02*
X9910000Y-5975000D01*
X10155000Y-5280000D02*
X10185000Y-5310000D01*
X10185000Y-5280000D02*
X10155000Y-5310000D01*
X10360000Y-6535000D02*
X10390000Y-6565000D01*
X10390000Y-6535000D02*
X10360000Y-6565000D01*
X7230000Y-5131000D02*
G75*
G02*
X7130000Y-5131000I-50000J0D01*
G01*
X7130000Y-5131000D02*
G75*
G02*
X7230000Y-5131000I50000J0D01*
G01*
X7230000Y-5385000D02*
G75*
G02*
X7130000Y-5385000I-50000J0D01*
G01*
X7130000Y-5385000D02*
G75*
G02*
X7230000Y-5385000I50000J0D01*
G01*
X7230000Y-5930000D02*
G75*
G02*
X7130000Y-5930000I-50000J0D01*
G01*
X7130000Y-5930000D02*
G75*
G02*
X7230000Y-5930000I50000J0D01*
G01*
X7230000Y-6184000D02*
G75*
G02*
X7130000Y-6184000I-50000J0D01*
G01*
X7130000Y-6184000D02*
G75*
G02*
X7230000Y-6184000I50000J0D01*
G01*
X7230000Y-6438000D02*
G75*
G02*
X7130000Y-6438000I-50000J0D01*
G01*
X7130000Y-6438000D02*
G75*
G02*
X7230000Y-6438000I50000J0D01*
G01*
X9370000Y-5265000D02*
G75*
G02*
X9270000Y-5265000I-50000J0D01*
G01*
X9270000Y-5265000D02*
G75*
G02*
X9370000Y-5265000I50000J0D01*
G01*
X9624000Y-5265000D02*
G75*
G02*
X9524000Y-5265000I-50000J0D01*
G01*
X9524000Y-5265000D02*
G75*
G02*
X9624000Y-5265000I50000J0D01*
G01*
X10565000Y-4897500D02*
G75*
G02*
X10465000Y-4897500I-50000J0D01*
G01*
X10465000Y-4897500D02*
G75*
G02*
X10565000Y-4897500I50000J0D01*
G01*
X10565000Y-5151500D02*
G75*
G02*
X10465000Y-5151500I-50000J0D01*
G01*
X10465000Y-5151500D02*
G75*
G02*
X10565000Y-5151500I50000J0D01*
G01*
X10565000Y-5405500D02*
G75*
G02*
X10465000Y-5405500I-50000J0D01*
G01*
X10465000Y-5405500D02*
G75*
G02*
X10565000Y-5405500I50000J0D01*
G01*
X10565000Y-5659500D02*
G75*
G02*
X10465000Y-5659500I-50000J0D01*
G01*
X10465000Y-5659500D02*
G75*
G02*
X10565000Y-5659500I50000J0D01*
G01*
X10565000Y-5913500D02*
G75*
G02*
X10465000Y-5913500I-50000J0D01*
G01*
X10465000Y-5913500D02*
G75*
G02*
X10565000Y-5913500I50000J0D01*
G01*
X10565000Y-6167500D02*
G75*
G02*
X10465000Y-6167500I-50000J0D01*
G01*
X10465000Y-6167500D02*
G75*
G02*
X10565000Y-6167500I50000J0D01*
G01*
X10565000Y-6421500D02*
G75*
G02*
X10465000Y-6421500I-50000J0D01*
G01*
X10465000Y-6421500D02*
G75*
G02*
X10565000Y-6421500I50000J0D01*
G01*
X10565000Y-6675500D02*
G75*
G02*
X10465000Y-6675500I-50000J0D01*
G01*
X10465000Y-6675500D02*
G75*
G02*
X10565000Y-6675500I50000J0D01*
G01*
D11*
X7208277Y-7226163D02*
X7208277Y-7026163D01*
X7208277Y-7026163D02*
X7255896Y-7026163D01*
X7255896Y-7026163D02*
X7284467Y-7035687D01*
X7284467Y-7035687D02*
X7303515Y-7054734D01*
X7303515Y-7054734D02*
X7313039Y-7073782D01*
X7313039Y-7073782D02*
X7322562Y-7111877D01*
X7322562Y-7111877D02*
X7322562Y-7140448D01*
X7322562Y-7140448D02*
X7313039Y-7178544D01*
X7313039Y-7178544D02*
X7303515Y-7197591D01*
X7303515Y-7197591D02*
X7284467Y-7216639D01*
X7284467Y-7216639D02*
X7255896Y-7226163D01*
X7255896Y-7226163D02*
X7208277Y-7226163D01*
X7408277Y-7226163D02*
X7408277Y-7092829D01*
X7408277Y-7130925D02*
X7417801Y-7111877D01*
X7417801Y-7111877D02*
X7427324Y-7102353D01*
X7427324Y-7102353D02*
X7446372Y-7092829D01*
X7446372Y-7092829D02*
X7465420Y-7092829D01*
X7532086Y-7226163D02*
X7532086Y-7092829D01*
X7532086Y-7026163D02*
X7522562Y-7035687D01*
X7522562Y-7035687D02*
X7532086Y-7045210D01*
X7532086Y-7045210D02*
X7541610Y-7035687D01*
X7541610Y-7035687D02*
X7532086Y-7026163D01*
X7532086Y-7026163D02*
X7532086Y-7045210D01*
X7655896Y-7226163D02*
X7636848Y-7216639D01*
X7636848Y-7216639D02*
X7627324Y-7197591D01*
X7627324Y-7197591D02*
X7627324Y-7026163D01*
X7760658Y-7226163D02*
X7741610Y-7216639D01*
X7741610Y-7216639D02*
X7732086Y-7197591D01*
X7732086Y-7197591D02*
X7732086Y-7026163D01*
X7989229Y-7226163D02*
X7989229Y-7026163D01*
X7989229Y-7026163D02*
X8055896Y-7169020D01*
X8055896Y-7169020D02*
X8122562Y-7026163D01*
X8122562Y-7026163D02*
X8122562Y-7226163D01*
X8303515Y-7226163D02*
X8303515Y-7121401D01*
X8303515Y-7121401D02*
X8293991Y-7102353D01*
X8293991Y-7102353D02*
X8274943Y-7092829D01*
X8274943Y-7092829D02*
X8236848Y-7092829D01*
X8236848Y-7092829D02*
X8217801Y-7102353D01*
X8303515Y-7216639D02*
X8284467Y-7226163D01*
X8284467Y-7226163D02*
X8236848Y-7226163D01*
X8236848Y-7226163D02*
X8217801Y-7216639D01*
X8217801Y-7216639D02*
X8208277Y-7197591D01*
X8208277Y-7197591D02*
X8208277Y-7178544D01*
X8208277Y-7178544D02*
X8217801Y-7159496D01*
X8217801Y-7159496D02*
X8236848Y-7149972D01*
X8236848Y-7149972D02*
X8284467Y-7149972D01*
X8284467Y-7149972D02*
X8303515Y-7140448D01*
X8398753Y-7092829D02*
X8398753Y-7292829D01*
X8398753Y-7102353D02*
X8417801Y-7092829D01*
X8417801Y-7092829D02*
X8455896Y-7092829D01*
X8455896Y-7092829D02*
X8474944Y-7102353D01*
X8474944Y-7102353D02*
X8484467Y-7111877D01*
X8484467Y-7111877D02*
X8493991Y-7130925D01*
X8493991Y-7130925D02*
X8493991Y-7188067D01*
X8493991Y-7188067D02*
X8484467Y-7207115D01*
X8484467Y-7207115D02*
X8474944Y-7216639D01*
X8474944Y-7216639D02*
X8455896Y-7226163D01*
X8455896Y-7226163D02*
X8417801Y-7226163D01*
X8417801Y-7226163D02*
X8398753Y-7216639D01*
X8579705Y-7207115D02*
X8589229Y-7216639D01*
X8589229Y-7216639D02*
X8579705Y-7226163D01*
X8579705Y-7226163D02*
X8570182Y-7216639D01*
X8570182Y-7216639D02*
X8579705Y-7207115D01*
X8579705Y-7207115D02*
X8579705Y-7226163D01*
X8579705Y-7102353D02*
X8589229Y-7111877D01*
X8589229Y-7111877D02*
X8579705Y-7121401D01*
X8579705Y-7121401D02*
X8570182Y-7111877D01*
X8570182Y-7111877D02*
X8579705Y-7102353D01*
X8579705Y-7102353D02*
X8579705Y-7121401D01*
D12*
X6917500Y-7539679D02*
X6947500Y-7569679D01*
X6947500Y-7539679D02*
X6917500Y-7569679D01*
D11*
X7246372Y-7446163D02*
X7265420Y-7446163D01*
X7265420Y-7446163D02*
X7284467Y-7455687D01*
X7284467Y-7455687D02*
X7293991Y-7465210D01*
X7293991Y-7465210D02*
X7303515Y-7484258D01*
X7303515Y-7484258D02*
X7313039Y-7522353D01*
X7313039Y-7522353D02*
X7313039Y-7569972D01*
X7313039Y-7569972D02*
X7303515Y-7608067D01*
X7303515Y-7608067D02*
X7293991Y-7627115D01*
X7293991Y-7627115D02*
X7284467Y-7636639D01*
X7284467Y-7636639D02*
X7265420Y-7646163D01*
X7265420Y-7646163D02*
X7246372Y-7646163D01*
X7246372Y-7646163D02*
X7227324Y-7636639D01*
X7227324Y-7636639D02*
X7217801Y-7627115D01*
X7217801Y-7627115D02*
X7208277Y-7608067D01*
X7208277Y-7608067D02*
X7198753Y-7569972D01*
X7198753Y-7569972D02*
X7198753Y-7522353D01*
X7198753Y-7522353D02*
X7208277Y-7484258D01*
X7208277Y-7484258D02*
X7217801Y-7465210D01*
X7217801Y-7465210D02*
X7227324Y-7455687D01*
X7227324Y-7455687D02*
X7246372Y-7446163D01*
X7398753Y-7627115D02*
X7408277Y-7636639D01*
X7408277Y-7636639D02*
X7398753Y-7646163D01*
X7398753Y-7646163D02*
X7389229Y-7636639D01*
X7389229Y-7636639D02*
X7398753Y-7627115D01*
X7398753Y-7627115D02*
X7398753Y-7646163D01*
X7474943Y-7446163D02*
X7598753Y-7446163D01*
X7598753Y-7446163D02*
X7532086Y-7522353D01*
X7532086Y-7522353D02*
X7560658Y-7522353D01*
X7560658Y-7522353D02*
X7579705Y-7531877D01*
X7579705Y-7531877D02*
X7589229Y-7541401D01*
X7589229Y-7541401D02*
X7598753Y-7560448D01*
X7598753Y-7560448D02*
X7598753Y-7608067D01*
X7598753Y-7608067D02*
X7589229Y-7627115D01*
X7589229Y-7627115D02*
X7579705Y-7636639D01*
X7579705Y-7636639D02*
X7560658Y-7646163D01*
X7560658Y-7646163D02*
X7503515Y-7646163D01*
X7503515Y-7646163D02*
X7484467Y-7636639D01*
X7484467Y-7636639D02*
X7474943Y-7627115D01*
X7722562Y-7446163D02*
X7741610Y-7446163D01*
X7741610Y-7446163D02*
X7760658Y-7455687D01*
X7760658Y-7455687D02*
X7770182Y-7465210D01*
X7770182Y-7465210D02*
X7779705Y-7484258D01*
X7779705Y-7484258D02*
X7789229Y-7522353D01*
X7789229Y-7522353D02*
X7789229Y-7569972D01*
X7789229Y-7569972D02*
X7779705Y-7608067D01*
X7779705Y-7608067D02*
X7770182Y-7627115D01*
X7770182Y-7627115D02*
X7760658Y-7636639D01*
X7760658Y-7636639D02*
X7741610Y-7646163D01*
X7741610Y-7646163D02*
X7722562Y-7646163D01*
X7722562Y-7646163D02*
X7703515Y-7636639D01*
X7703515Y-7636639D02*
X7693991Y-7627115D01*
X7693991Y-7627115D02*
X7684467Y-7608067D01*
X7684467Y-7608067D02*
X7674943Y-7569972D01*
X7674943Y-7569972D02*
X7674943Y-7522353D01*
X7674943Y-7522353D02*
X7684467Y-7484258D01*
X7684467Y-7484258D02*
X7693991Y-7465210D01*
X7693991Y-7465210D02*
X7703515Y-7455687D01*
X7703515Y-7455687D02*
X7722562Y-7446163D01*
X7913039Y-7446163D02*
X7932086Y-7446163D01*
X7932086Y-7446163D02*
X7951134Y-7455687D01*
X7951134Y-7455687D02*
X7960658Y-7465210D01*
X7960658Y-7465210D02*
X7970182Y-7484258D01*
X7970182Y-7484258D02*
X7979705Y-7522353D01*
X7979705Y-7522353D02*
X7979705Y-7569972D01*
X7979705Y-7569972D02*
X7970182Y-7608067D01*
X7970182Y-7608067D02*
X7960658Y-7627115D01*
X7960658Y-7627115D02*
X7951134Y-7636639D01*
X7951134Y-7636639D02*
X7932086Y-7646163D01*
X7932086Y-7646163D02*
X7913039Y-7646163D01*
X7913039Y-7646163D02*
X7893991Y-7636639D01*
X7893991Y-7636639D02*
X7884467Y-7627115D01*
X7884467Y-7627115D02*
X7874943Y-7608067D01*
X7874943Y-7608067D02*
X7865420Y-7569972D01*
X7865420Y-7569972D02*
X7865420Y-7522353D01*
X7865420Y-7522353D02*
X7874943Y-7484258D01*
X7874943Y-7484258D02*
X7884467Y-7465210D01*
X7884467Y-7465210D02*
X7893991Y-7455687D01*
X7893991Y-7455687D02*
X7913039Y-7446163D01*
X8065420Y-7646163D02*
X8065420Y-7512829D01*
X8065420Y-7531877D02*
X8074943Y-7522353D01*
X8074943Y-7522353D02*
X8093991Y-7512829D01*
X8093991Y-7512829D02*
X8122563Y-7512829D01*
X8122563Y-7512829D02*
X8141610Y-7522353D01*
X8141610Y-7522353D02*
X8151134Y-7541401D01*
X8151134Y-7541401D02*
X8151134Y-7646163D01*
X8151134Y-7541401D02*
X8160658Y-7522353D01*
X8160658Y-7522353D02*
X8179705Y-7512829D01*
X8179705Y-7512829D02*
X8208277Y-7512829D01*
X8208277Y-7512829D02*
X8227324Y-7522353D01*
X8227324Y-7522353D02*
X8236848Y-7541401D01*
X8236848Y-7541401D02*
X8236848Y-7646163D01*
X8332086Y-7646163D02*
X8332086Y-7512829D01*
X8332086Y-7531877D02*
X8341610Y-7522353D01*
X8341610Y-7522353D02*
X8360658Y-7512829D01*
X8360658Y-7512829D02*
X8389229Y-7512829D01*
X8389229Y-7512829D02*
X8408277Y-7522353D01*
X8408277Y-7522353D02*
X8417801Y-7541401D01*
X8417801Y-7541401D02*
X8417801Y-7646163D01*
X8417801Y-7541401D02*
X8427325Y-7522353D01*
X8427325Y-7522353D02*
X8446372Y-7512829D01*
X8446372Y-7512829D02*
X8474944Y-7512829D01*
X8474944Y-7512829D02*
X8493991Y-7522353D01*
X8493991Y-7522353D02*
X8503515Y-7541401D01*
X8503515Y-7541401D02*
X8503515Y-7646163D01*
X8893991Y-7436639D02*
X8722563Y-7693782D01*
X9151134Y-7446163D02*
X9170182Y-7446163D01*
X9170182Y-7446163D02*
X9189229Y-7455687D01*
X9189229Y-7455687D02*
X9198753Y-7465210D01*
X9198753Y-7465210D02*
X9208277Y-7484258D01*
X9208277Y-7484258D02*
X9217801Y-7522353D01*
X9217801Y-7522353D02*
X9217801Y-7569972D01*
X9217801Y-7569972D02*
X9208277Y-7608067D01*
X9208277Y-7608067D02*
X9198753Y-7627115D01*
X9198753Y-7627115D02*
X9189229Y-7636639D01*
X9189229Y-7636639D02*
X9170182Y-7646163D01*
X9170182Y-7646163D02*
X9151134Y-7646163D01*
X9151134Y-7646163D02*
X9132087Y-7636639D01*
X9132087Y-7636639D02*
X9122563Y-7627115D01*
X9122563Y-7627115D02*
X9113039Y-7608067D01*
X9113039Y-7608067D02*
X9103515Y-7569972D01*
X9103515Y-7569972D02*
X9103515Y-7522353D01*
X9103515Y-7522353D02*
X9113039Y-7484258D01*
X9113039Y-7484258D02*
X9122563Y-7465210D01*
X9122563Y-7465210D02*
X9132087Y-7455687D01*
X9132087Y-7455687D02*
X9151134Y-7446163D01*
X9303515Y-7627115D02*
X9313039Y-7636639D01*
X9313039Y-7636639D02*
X9303515Y-7646163D01*
X9303515Y-7646163D02*
X9293991Y-7636639D01*
X9293991Y-7636639D02*
X9303515Y-7627115D01*
X9303515Y-7627115D02*
X9303515Y-7646163D01*
X9436848Y-7446163D02*
X9455896Y-7446163D01*
X9455896Y-7446163D02*
X9474944Y-7455687D01*
X9474944Y-7455687D02*
X9484468Y-7465210D01*
X9484468Y-7465210D02*
X9493991Y-7484258D01*
X9493991Y-7484258D02*
X9503515Y-7522353D01*
X9503515Y-7522353D02*
X9503515Y-7569972D01*
X9503515Y-7569972D02*
X9493991Y-7608067D01*
X9493991Y-7608067D02*
X9484468Y-7627115D01*
X9484468Y-7627115D02*
X9474944Y-7636639D01*
X9474944Y-7636639D02*
X9455896Y-7646163D01*
X9455896Y-7646163D02*
X9436848Y-7646163D01*
X9436848Y-7646163D02*
X9417801Y-7636639D01*
X9417801Y-7636639D02*
X9408277Y-7627115D01*
X9408277Y-7627115D02*
X9398753Y-7608067D01*
X9398753Y-7608067D02*
X9389229Y-7569972D01*
X9389229Y-7569972D02*
X9389229Y-7522353D01*
X9389229Y-7522353D02*
X9398753Y-7484258D01*
X9398753Y-7484258D02*
X9408277Y-7465210D01*
X9408277Y-7465210D02*
X9417801Y-7455687D01*
X9417801Y-7455687D02*
X9436848Y-7446163D01*
X9693991Y-7646163D02*
X9579706Y-7646163D01*
X9636848Y-7646163D02*
X9636848Y-7446163D01*
X9636848Y-7446163D02*
X9617801Y-7474734D01*
X9617801Y-7474734D02*
X9598753Y-7493782D01*
X9598753Y-7493782D02*
X9579706Y-7503306D01*
X9884468Y-7646163D02*
X9770182Y-7646163D01*
X9827325Y-7646163D02*
X9827325Y-7446163D01*
X9827325Y-7446163D02*
X9808277Y-7474734D01*
X9808277Y-7474734D02*
X9789229Y-7493782D01*
X9789229Y-7493782D02*
X9770182Y-7503306D01*
X9998753Y-7531877D02*
X9979706Y-7522353D01*
X9979706Y-7522353D02*
X9970182Y-7512829D01*
X9970182Y-7512829D02*
X9960658Y-7493782D01*
X9960658Y-7493782D02*
X9960658Y-7484258D01*
X9960658Y-7484258D02*
X9970182Y-7465210D01*
X9970182Y-7465210D02*
X9979706Y-7455687D01*
X9979706Y-7455687D02*
X9998753Y-7446163D01*
X9998753Y-7446163D02*
X10036849Y-7446163D01*
X10036849Y-7446163D02*
X10055896Y-7455687D01*
X10055896Y-7455687D02*
X10065420Y-7465210D01*
X10065420Y-7465210D02*
X10074944Y-7484258D01*
X10074944Y-7484258D02*
X10074944Y-7493782D01*
X10074944Y-7493782D02*
X10065420Y-7512829D01*
X10065420Y-7512829D02*
X10055896Y-7522353D01*
X10055896Y-7522353D02*
X10036849Y-7531877D01*
X10036849Y-7531877D02*
X9998753Y-7531877D01*
X9998753Y-7531877D02*
X9979706Y-7541401D01*
X9979706Y-7541401D02*
X9970182Y-7550925D01*
X9970182Y-7550925D02*
X9960658Y-7569972D01*
X9960658Y-7569972D02*
X9960658Y-7608067D01*
X9960658Y-7608067D02*
X9970182Y-7627115D01*
X9970182Y-7627115D02*
X9979706Y-7636639D01*
X9979706Y-7636639D02*
X9998753Y-7646163D01*
X9998753Y-7646163D02*
X10036849Y-7646163D01*
X10036849Y-7646163D02*
X10055896Y-7636639D01*
X10055896Y-7636639D02*
X10065420Y-7627115D01*
X10065420Y-7627115D02*
X10074944Y-7608067D01*
X10074944Y-7608067D02*
X10074944Y-7569972D01*
X10074944Y-7569972D02*
X10065420Y-7550925D01*
X10065420Y-7550925D02*
X10055896Y-7541401D01*
X10055896Y-7541401D02*
X10036849Y-7531877D01*
X10151134Y-7446163D02*
X10151134Y-7484258D01*
X10227325Y-7446163D02*
X10227325Y-7484258D01*
X10522563Y-7722353D02*
X10513039Y-7712829D01*
X10513039Y-7712829D02*
X10493991Y-7684258D01*
X10493991Y-7684258D02*
X10484468Y-7665210D01*
X10484468Y-7665210D02*
X10474944Y-7636639D01*
X10474944Y-7636639D02*
X10465420Y-7589020D01*
X10465420Y-7589020D02*
X10465420Y-7550925D01*
X10465420Y-7550925D02*
X10474944Y-7503306D01*
X10474944Y-7503306D02*
X10484468Y-7474734D01*
X10484468Y-7474734D02*
X10493991Y-7455687D01*
X10493991Y-7455687D02*
X10513039Y-7427115D01*
X10513039Y-7427115D02*
X10522563Y-7417591D01*
X10703515Y-7646163D02*
X10589230Y-7646163D01*
X10646372Y-7646163D02*
X10646372Y-7446163D01*
X10646372Y-7446163D02*
X10627325Y-7474734D01*
X10627325Y-7474734D02*
X10608277Y-7493782D01*
X10608277Y-7493782D02*
X10589230Y-7503306D01*
X10770182Y-7446163D02*
X10903515Y-7446163D01*
X10903515Y-7446163D02*
X10817801Y-7646163D01*
X11132087Y-7646163D02*
X11132087Y-7446163D01*
X11217801Y-7646163D02*
X11217801Y-7541401D01*
X11217801Y-7541401D02*
X11208277Y-7522353D01*
X11208277Y-7522353D02*
X11189230Y-7512829D01*
X11189230Y-7512829D02*
X11160658Y-7512829D01*
X11160658Y-7512829D02*
X11141611Y-7522353D01*
X11141611Y-7522353D02*
X11132087Y-7531877D01*
X11341610Y-7646163D02*
X11322563Y-7636639D01*
X11322563Y-7636639D02*
X11313039Y-7627115D01*
X11313039Y-7627115D02*
X11303515Y-7608067D01*
X11303515Y-7608067D02*
X11303515Y-7550925D01*
X11303515Y-7550925D02*
X11313039Y-7531877D01*
X11313039Y-7531877D02*
X11322563Y-7522353D01*
X11322563Y-7522353D02*
X11341610Y-7512829D01*
X11341610Y-7512829D02*
X11370182Y-7512829D01*
X11370182Y-7512829D02*
X11389230Y-7522353D01*
X11389230Y-7522353D02*
X11398753Y-7531877D01*
X11398753Y-7531877D02*
X11408277Y-7550925D01*
X11408277Y-7550925D02*
X11408277Y-7608067D01*
X11408277Y-7608067D02*
X11398753Y-7627115D01*
X11398753Y-7627115D02*
X11389230Y-7636639D01*
X11389230Y-7636639D02*
X11370182Y-7646163D01*
X11370182Y-7646163D02*
X11341610Y-7646163D01*
X11522563Y-7646163D02*
X11503515Y-7636639D01*
X11503515Y-7636639D02*
X11493991Y-7617591D01*
X11493991Y-7617591D02*
X11493991Y-7446163D01*
X11674944Y-7636639D02*
X11655896Y-7646163D01*
X11655896Y-7646163D02*
X11617801Y-7646163D01*
X11617801Y-7646163D02*
X11598753Y-7636639D01*
X11598753Y-7636639D02*
X11589230Y-7617591D01*
X11589230Y-7617591D02*
X11589230Y-7541401D01*
X11589230Y-7541401D02*
X11598753Y-7522353D01*
X11598753Y-7522353D02*
X11617801Y-7512829D01*
X11617801Y-7512829D02*
X11655896Y-7512829D01*
X11655896Y-7512829D02*
X11674944Y-7522353D01*
X11674944Y-7522353D02*
X11684468Y-7541401D01*
X11684468Y-7541401D02*
X11684468Y-7560448D01*
X11684468Y-7560448D02*
X11589230Y-7579496D01*
X11760658Y-7636639D02*
X11779706Y-7646163D01*
X11779706Y-7646163D02*
X11817801Y-7646163D01*
X11817801Y-7646163D02*
X11836849Y-7636639D01*
X11836849Y-7636639D02*
X11846372Y-7617591D01*
X11846372Y-7617591D02*
X11846372Y-7608067D01*
X11846372Y-7608067D02*
X11836849Y-7589020D01*
X11836849Y-7589020D02*
X11817801Y-7579496D01*
X11817801Y-7579496D02*
X11789230Y-7579496D01*
X11789230Y-7579496D02*
X11770182Y-7569972D01*
X11770182Y-7569972D02*
X11760658Y-7550925D01*
X11760658Y-7550925D02*
X11760658Y-7541401D01*
X11760658Y-7541401D02*
X11770182Y-7522353D01*
X11770182Y-7522353D02*
X11789230Y-7512829D01*
X11789230Y-7512829D02*
X11817801Y-7512829D01*
X11817801Y-7512829D02*
X11836849Y-7522353D01*
X11913039Y-7722353D02*
X11922563Y-7712829D01*
X11922563Y-7712829D02*
X11941611Y-7684258D01*
X11941611Y-7684258D02*
X11951134Y-7665210D01*
X11951134Y-7665210D02*
X11960658Y-7636639D01*
X11960658Y-7636639D02*
X11970182Y-7589020D01*
X11970182Y-7589020D02*
X11970182Y-7550925D01*
X11970182Y-7550925D02*
X11960658Y-7503306D01*
X11960658Y-7503306D02*
X11951134Y-7474734D01*
X11951134Y-7474734D02*
X11941611Y-7455687D01*
X11941611Y-7455687D02*
X11922563Y-7427115D01*
X11922563Y-7427115D02*
X11913039Y-7417591D01*
D12*
X6947500Y-7818679D02*
G75*
G02*
X6847500Y-7818679I-50000J0D01*
G01*
X6847500Y-7818679D02*
G75*
G02*
X6947500Y-7818679I50000J0D01*
G01*
D11*
X7313039Y-7910163D02*
X7198753Y-7910163D01*
X7255896Y-7910163D02*
X7255896Y-7710163D01*
X7255896Y-7710163D02*
X7236848Y-7738734D01*
X7236848Y-7738734D02*
X7217801Y-7757782D01*
X7217801Y-7757782D02*
X7198753Y-7767306D01*
X7398753Y-7891115D02*
X7408277Y-7900639D01*
X7408277Y-7900639D02*
X7398753Y-7910163D01*
X7398753Y-7910163D02*
X7389229Y-7900639D01*
X7389229Y-7900639D02*
X7398753Y-7891115D01*
X7398753Y-7891115D02*
X7398753Y-7910163D01*
X7532086Y-7710163D02*
X7551134Y-7710163D01*
X7551134Y-7710163D02*
X7570182Y-7719687D01*
X7570182Y-7719687D02*
X7579705Y-7729210D01*
X7579705Y-7729210D02*
X7589229Y-7748258D01*
X7589229Y-7748258D02*
X7598753Y-7786353D01*
X7598753Y-7786353D02*
X7598753Y-7833972D01*
X7598753Y-7833972D02*
X7589229Y-7872067D01*
X7589229Y-7872067D02*
X7579705Y-7891115D01*
X7579705Y-7891115D02*
X7570182Y-7900639D01*
X7570182Y-7900639D02*
X7551134Y-7910163D01*
X7551134Y-7910163D02*
X7532086Y-7910163D01*
X7532086Y-7910163D02*
X7513039Y-7900639D01*
X7513039Y-7900639D02*
X7503515Y-7891115D01*
X7503515Y-7891115D02*
X7493991Y-7872067D01*
X7493991Y-7872067D02*
X7484467Y-7833972D01*
X7484467Y-7833972D02*
X7484467Y-7786353D01*
X7484467Y-7786353D02*
X7493991Y-7748258D01*
X7493991Y-7748258D02*
X7503515Y-7729210D01*
X7503515Y-7729210D02*
X7513039Y-7719687D01*
X7513039Y-7719687D02*
X7532086Y-7710163D01*
X7722562Y-7710163D02*
X7741610Y-7710163D01*
X7741610Y-7710163D02*
X7760658Y-7719687D01*
X7760658Y-7719687D02*
X7770182Y-7729210D01*
X7770182Y-7729210D02*
X7779705Y-7748258D01*
X7779705Y-7748258D02*
X7789229Y-7786353D01*
X7789229Y-7786353D02*
X7789229Y-7833972D01*
X7789229Y-7833972D02*
X7779705Y-7872067D01*
X7779705Y-7872067D02*
X7770182Y-7891115D01*
X7770182Y-7891115D02*
X7760658Y-7900639D01*
X7760658Y-7900639D02*
X7741610Y-7910163D01*
X7741610Y-7910163D02*
X7722562Y-7910163D01*
X7722562Y-7910163D02*
X7703515Y-7900639D01*
X7703515Y-7900639D02*
X7693991Y-7891115D01*
X7693991Y-7891115D02*
X7684467Y-7872067D01*
X7684467Y-7872067D02*
X7674943Y-7833972D01*
X7674943Y-7833972D02*
X7674943Y-7786353D01*
X7674943Y-7786353D02*
X7684467Y-7748258D01*
X7684467Y-7748258D02*
X7693991Y-7729210D01*
X7693991Y-7729210D02*
X7703515Y-7719687D01*
X7703515Y-7719687D02*
X7722562Y-7710163D01*
X7913039Y-7710163D02*
X7932086Y-7710163D01*
X7932086Y-7710163D02*
X7951134Y-7719687D01*
X7951134Y-7719687D02*
X7960658Y-7729210D01*
X7960658Y-7729210D02*
X7970182Y-7748258D01*
X7970182Y-7748258D02*
X7979705Y-7786353D01*
X7979705Y-7786353D02*
X7979705Y-7833972D01*
X7979705Y-7833972D02*
X7970182Y-7872067D01*
X7970182Y-7872067D02*
X7960658Y-7891115D01*
X7960658Y-7891115D02*
X7951134Y-7900639D01*
X7951134Y-7900639D02*
X7932086Y-7910163D01*
X7932086Y-7910163D02*
X7913039Y-7910163D01*
X7913039Y-7910163D02*
X7893991Y-7900639D01*
X7893991Y-7900639D02*
X7884467Y-7891115D01*
X7884467Y-7891115D02*
X7874943Y-7872067D01*
X7874943Y-7872067D02*
X7865420Y-7833972D01*
X7865420Y-7833972D02*
X7865420Y-7786353D01*
X7865420Y-7786353D02*
X7874943Y-7748258D01*
X7874943Y-7748258D02*
X7884467Y-7729210D01*
X7884467Y-7729210D02*
X7893991Y-7719687D01*
X7893991Y-7719687D02*
X7913039Y-7710163D01*
X8065420Y-7910163D02*
X8065420Y-7776829D01*
X8065420Y-7795877D02*
X8074943Y-7786353D01*
X8074943Y-7786353D02*
X8093991Y-7776829D01*
X8093991Y-7776829D02*
X8122563Y-7776829D01*
X8122563Y-7776829D02*
X8141610Y-7786353D01*
X8141610Y-7786353D02*
X8151134Y-7805401D01*
X8151134Y-7805401D02*
X8151134Y-7910163D01*
X8151134Y-7805401D02*
X8160658Y-7786353D01*
X8160658Y-7786353D02*
X8179705Y-7776829D01*
X8179705Y-7776829D02*
X8208277Y-7776829D01*
X8208277Y-7776829D02*
X8227324Y-7786353D01*
X8227324Y-7786353D02*
X8236848Y-7805401D01*
X8236848Y-7805401D02*
X8236848Y-7910163D01*
X8332086Y-7910163D02*
X8332086Y-7776829D01*
X8332086Y-7795877D02*
X8341610Y-7786353D01*
X8341610Y-7786353D02*
X8360658Y-7776829D01*
X8360658Y-7776829D02*
X8389229Y-7776829D01*
X8389229Y-7776829D02*
X8408277Y-7786353D01*
X8408277Y-7786353D02*
X8417801Y-7805401D01*
X8417801Y-7805401D02*
X8417801Y-7910163D01*
X8417801Y-7805401D02*
X8427325Y-7786353D01*
X8427325Y-7786353D02*
X8446372Y-7776829D01*
X8446372Y-7776829D02*
X8474944Y-7776829D01*
X8474944Y-7776829D02*
X8493991Y-7786353D01*
X8493991Y-7786353D02*
X8503515Y-7805401D01*
X8503515Y-7805401D02*
X8503515Y-7910163D01*
X8893991Y-7700639D02*
X8722563Y-7957782D01*
X9151134Y-7710163D02*
X9170182Y-7710163D01*
X9170182Y-7710163D02*
X9189229Y-7719687D01*
X9189229Y-7719687D02*
X9198753Y-7729210D01*
X9198753Y-7729210D02*
X9208277Y-7748258D01*
X9208277Y-7748258D02*
X9217801Y-7786353D01*
X9217801Y-7786353D02*
X9217801Y-7833972D01*
X9217801Y-7833972D02*
X9208277Y-7872067D01*
X9208277Y-7872067D02*
X9198753Y-7891115D01*
X9198753Y-7891115D02*
X9189229Y-7900639D01*
X9189229Y-7900639D02*
X9170182Y-7910163D01*
X9170182Y-7910163D02*
X9151134Y-7910163D01*
X9151134Y-7910163D02*
X9132087Y-7900639D01*
X9132087Y-7900639D02*
X9122563Y-7891115D01*
X9122563Y-7891115D02*
X9113039Y-7872067D01*
X9113039Y-7872067D02*
X9103515Y-7833972D01*
X9103515Y-7833972D02*
X9103515Y-7786353D01*
X9103515Y-7786353D02*
X9113039Y-7748258D01*
X9113039Y-7748258D02*
X9122563Y-7729210D01*
X9122563Y-7729210D02*
X9132087Y-7719687D01*
X9132087Y-7719687D02*
X9151134Y-7710163D01*
X9303515Y-7891115D02*
X9313039Y-7900639D01*
X9313039Y-7900639D02*
X9303515Y-7910163D01*
X9303515Y-7910163D02*
X9293991Y-7900639D01*
X9293991Y-7900639D02*
X9303515Y-7891115D01*
X9303515Y-7891115D02*
X9303515Y-7910163D01*
X9436848Y-7710163D02*
X9455896Y-7710163D01*
X9455896Y-7710163D02*
X9474944Y-7719687D01*
X9474944Y-7719687D02*
X9484468Y-7729210D01*
X9484468Y-7729210D02*
X9493991Y-7748258D01*
X9493991Y-7748258D02*
X9503515Y-7786353D01*
X9503515Y-7786353D02*
X9503515Y-7833972D01*
X9503515Y-7833972D02*
X9493991Y-7872067D01*
X9493991Y-7872067D02*
X9484468Y-7891115D01*
X9484468Y-7891115D02*
X9474944Y-7900639D01*
X9474944Y-7900639D02*
X9455896Y-7910163D01*
X9455896Y-7910163D02*
X9436848Y-7910163D01*
X9436848Y-7910163D02*
X9417801Y-7900639D01*
X9417801Y-7900639D02*
X9408277Y-7891115D01*
X9408277Y-7891115D02*
X9398753Y-7872067D01*
X9398753Y-7872067D02*
X9389229Y-7833972D01*
X9389229Y-7833972D02*
X9389229Y-7786353D01*
X9389229Y-7786353D02*
X9398753Y-7748258D01*
X9398753Y-7748258D02*
X9408277Y-7729210D01*
X9408277Y-7729210D02*
X9417801Y-7719687D01*
X9417801Y-7719687D02*
X9436848Y-7710163D01*
X9570182Y-7710163D02*
X9693991Y-7710163D01*
X9693991Y-7710163D02*
X9627325Y-7786353D01*
X9627325Y-7786353D02*
X9655896Y-7786353D01*
X9655896Y-7786353D02*
X9674944Y-7795877D01*
X9674944Y-7795877D02*
X9684468Y-7805401D01*
X9684468Y-7805401D02*
X9693991Y-7824448D01*
X9693991Y-7824448D02*
X9693991Y-7872067D01*
X9693991Y-7872067D02*
X9684468Y-7891115D01*
X9684468Y-7891115D02*
X9674944Y-7900639D01*
X9674944Y-7900639D02*
X9655896Y-7910163D01*
X9655896Y-7910163D02*
X9598753Y-7910163D01*
X9598753Y-7910163D02*
X9579706Y-7900639D01*
X9579706Y-7900639D02*
X9570182Y-7891115D01*
X9789229Y-7910163D02*
X9827325Y-7910163D01*
X9827325Y-7910163D02*
X9846372Y-7900639D01*
X9846372Y-7900639D02*
X9855896Y-7891115D01*
X9855896Y-7891115D02*
X9874944Y-7862544D01*
X9874944Y-7862544D02*
X9884468Y-7824448D01*
X9884468Y-7824448D02*
X9884468Y-7748258D01*
X9884468Y-7748258D02*
X9874944Y-7729210D01*
X9874944Y-7729210D02*
X9865420Y-7719687D01*
X9865420Y-7719687D02*
X9846372Y-7710163D01*
X9846372Y-7710163D02*
X9808277Y-7710163D01*
X9808277Y-7710163D02*
X9789229Y-7719687D01*
X9789229Y-7719687D02*
X9779706Y-7729210D01*
X9779706Y-7729210D02*
X9770182Y-7748258D01*
X9770182Y-7748258D02*
X9770182Y-7795877D01*
X9770182Y-7795877D02*
X9779706Y-7814925D01*
X9779706Y-7814925D02*
X9789229Y-7824448D01*
X9789229Y-7824448D02*
X9808277Y-7833972D01*
X9808277Y-7833972D02*
X9846372Y-7833972D01*
X9846372Y-7833972D02*
X9865420Y-7824448D01*
X9865420Y-7824448D02*
X9874944Y-7814925D01*
X9874944Y-7814925D02*
X9884468Y-7795877D01*
X10055896Y-7776829D02*
X10055896Y-7910163D01*
X10008277Y-7700639D02*
X9960658Y-7843496D01*
X9960658Y-7843496D02*
X10084468Y-7843496D01*
X10151134Y-7710163D02*
X10151134Y-7748258D01*
X10227325Y-7710163D02*
X10227325Y-7748258D01*
X10522563Y-7986353D02*
X10513039Y-7976829D01*
X10513039Y-7976829D02*
X10493991Y-7948258D01*
X10493991Y-7948258D02*
X10484468Y-7929210D01*
X10484468Y-7929210D02*
X10474944Y-7900639D01*
X10474944Y-7900639D02*
X10465420Y-7853020D01*
X10465420Y-7853020D02*
X10465420Y-7814925D01*
X10465420Y-7814925D02*
X10474944Y-7767306D01*
X10474944Y-7767306D02*
X10484468Y-7738734D01*
X10484468Y-7738734D02*
X10493991Y-7719687D01*
X10493991Y-7719687D02*
X10513039Y-7691115D01*
X10513039Y-7691115D02*
X10522563Y-7681591D01*
X10703515Y-7910163D02*
X10589230Y-7910163D01*
X10646372Y-7910163D02*
X10646372Y-7710163D01*
X10646372Y-7710163D02*
X10627325Y-7738734D01*
X10627325Y-7738734D02*
X10608277Y-7757782D01*
X10608277Y-7757782D02*
X10589230Y-7767306D01*
X10884468Y-7710163D02*
X10789230Y-7710163D01*
X10789230Y-7710163D02*
X10779706Y-7805401D01*
X10779706Y-7805401D02*
X10789230Y-7795877D01*
X10789230Y-7795877D02*
X10808277Y-7786353D01*
X10808277Y-7786353D02*
X10855896Y-7786353D01*
X10855896Y-7786353D02*
X10874944Y-7795877D01*
X10874944Y-7795877D02*
X10884468Y-7805401D01*
X10884468Y-7805401D02*
X10893991Y-7824448D01*
X10893991Y-7824448D02*
X10893991Y-7872067D01*
X10893991Y-7872067D02*
X10884468Y-7891115D01*
X10884468Y-7891115D02*
X10874944Y-7900639D01*
X10874944Y-7900639D02*
X10855896Y-7910163D01*
X10855896Y-7910163D02*
X10808277Y-7910163D01*
X10808277Y-7910163D02*
X10789230Y-7900639D01*
X10789230Y-7900639D02*
X10779706Y-7891115D01*
X11132087Y-7910163D02*
X11132087Y-7710163D01*
X11217801Y-7910163D02*
X11217801Y-7805401D01*
X11217801Y-7805401D02*
X11208277Y-7786353D01*
X11208277Y-7786353D02*
X11189230Y-7776829D01*
X11189230Y-7776829D02*
X11160658Y-7776829D01*
X11160658Y-7776829D02*
X11141611Y-7786353D01*
X11141611Y-7786353D02*
X11132087Y-7795877D01*
X11341610Y-7910163D02*
X11322563Y-7900639D01*
X11322563Y-7900639D02*
X11313039Y-7891115D01*
X11313039Y-7891115D02*
X11303515Y-7872067D01*
X11303515Y-7872067D02*
X11303515Y-7814925D01*
X11303515Y-7814925D02*
X11313039Y-7795877D01*
X11313039Y-7795877D02*
X11322563Y-7786353D01*
X11322563Y-7786353D02*
X11341610Y-7776829D01*
X11341610Y-7776829D02*
X11370182Y-7776829D01*
X11370182Y-7776829D02*
X11389230Y-7786353D01*
X11389230Y-7786353D02*
X11398753Y-7795877D01*
X11398753Y-7795877D02*
X11408277Y-7814925D01*
X11408277Y-7814925D02*
X11408277Y-7872067D01*
X11408277Y-7872067D02*
X11398753Y-7891115D01*
X11398753Y-7891115D02*
X11389230Y-7900639D01*
X11389230Y-7900639D02*
X11370182Y-7910163D01*
X11370182Y-7910163D02*
X11341610Y-7910163D01*
X11522563Y-7910163D02*
X11503515Y-7900639D01*
X11503515Y-7900639D02*
X11493991Y-7881591D01*
X11493991Y-7881591D02*
X11493991Y-7710163D01*
X11674944Y-7900639D02*
X11655896Y-7910163D01*
X11655896Y-7910163D02*
X11617801Y-7910163D01*
X11617801Y-7910163D02*
X11598753Y-7900639D01*
X11598753Y-7900639D02*
X11589230Y-7881591D01*
X11589230Y-7881591D02*
X11589230Y-7805401D01*
X11589230Y-7805401D02*
X11598753Y-7786353D01*
X11598753Y-7786353D02*
X11617801Y-7776829D01*
X11617801Y-7776829D02*
X11655896Y-7776829D01*
X11655896Y-7776829D02*
X11674944Y-7786353D01*
X11674944Y-7786353D02*
X11684468Y-7805401D01*
X11684468Y-7805401D02*
X11684468Y-7824448D01*
X11684468Y-7824448D02*
X11589230Y-7843496D01*
X11760658Y-7900639D02*
X11779706Y-7910163D01*
X11779706Y-7910163D02*
X11817801Y-7910163D01*
X11817801Y-7910163D02*
X11836849Y-7900639D01*
X11836849Y-7900639D02*
X11846372Y-7881591D01*
X11846372Y-7881591D02*
X11846372Y-7872067D01*
X11846372Y-7872067D02*
X11836849Y-7853020D01*
X11836849Y-7853020D02*
X11817801Y-7843496D01*
X11817801Y-7843496D02*
X11789230Y-7843496D01*
X11789230Y-7843496D02*
X11770182Y-7833972D01*
X11770182Y-7833972D02*
X11760658Y-7814925D01*
X11760658Y-7814925D02*
X11760658Y-7805401D01*
X11760658Y-7805401D02*
X11770182Y-7786353D01*
X11770182Y-7786353D02*
X11789230Y-7776829D01*
X11789230Y-7776829D02*
X11817801Y-7776829D01*
X11817801Y-7776829D02*
X11836849Y-7786353D01*
X11913039Y-7986353D02*
X11922563Y-7976829D01*
X11922563Y-7976829D02*
X11941611Y-7948258D01*
X11941611Y-7948258D02*
X11951134Y-7929210D01*
X11951134Y-7929210D02*
X11960658Y-7900639D01*
X11960658Y-7900639D02*
X11970182Y-7853020D01*
X11970182Y-7853020D02*
X11970182Y-7814925D01*
X11970182Y-7814925D02*
X11960658Y-7767306D01*
X11960658Y-7767306D02*
X11951134Y-7738734D01*
X11951134Y-7738734D02*
X11941611Y-7719687D01*
X11941611Y-7719687D02*
X11922563Y-7691115D01*
X11922563Y-7691115D02*
X11913039Y-7681591D01*
M02*
