%TF.GenerationSoftware,KiCad,Pcbnew,8.0.4*%
%TF.CreationDate,2024-09-19T17:48:03+02:00*%
%TF.ProjectId,vibration-motor,76696272-6174-4696-9f6e-2d6d6f746f72,rev?*%
%TF.SameCoordinates,Original*%
%TF.FileFunction,Drillmap*%
%TF.FilePolarity,Positive*%
%FSLAX45Y45*%
G04 Gerber Fmt 4.5, Leading zero omitted, Abs format (unit mm)*
G04 Created by KiCad (PCBNEW 8.0.4) date 2024-09-19 17:48:03*
%MOMM*%
%LPD*%
G01*
G04 APERTURE LIST*
%ADD10C,0.050000*%
%ADD11C,0.200000*%
G04 APERTURE END LIST*
D10*
X10712326Y-4650000D02*
G75*
G02*
X10762330Y-4700000I4J-50000D01*
G01*
X6950000Y-4700000D02*
G75*
G02*
X7000000Y-4650000I50000J0D01*
G01*
X10762326Y-6862179D02*
G75*
G02*
X10712326Y-6912176I-49996J-1D01*
G01*
X7000000Y-6912179D02*
G75*
G02*
X6950001Y-6862179I0J49999D01*
G01*
X7000000Y-4650000D02*
X10712326Y-4650000D01*
X10762326Y-4700000D02*
X10762326Y-6862179D01*
X6950000Y-6862179D02*
X6950000Y-4700000D01*
X10712326Y-6912179D02*
X7000000Y-6912179D01*
D11*
X7208277Y-7226163D02*
X7208277Y-7026163D01*
X7208277Y-7026163D02*
X7255896Y-7026163D01*
X7255896Y-7026163D02*
X7284467Y-7035687D01*
X7284467Y-7035687D02*
X7303515Y-7054734D01*
X7303515Y-7054734D02*
X7313039Y-7073782D01*
X7313039Y-7073782D02*
X7322562Y-7111877D01*
X7322562Y-7111877D02*
X7322562Y-7140448D01*
X7322562Y-7140448D02*
X7313039Y-7178544D01*
X7313039Y-7178544D02*
X7303515Y-7197591D01*
X7303515Y-7197591D02*
X7284467Y-7216639D01*
X7284467Y-7216639D02*
X7255896Y-7226163D01*
X7255896Y-7226163D02*
X7208277Y-7226163D01*
X7408277Y-7226163D02*
X7408277Y-7092829D01*
X7408277Y-7130925D02*
X7417801Y-7111877D01*
X7417801Y-7111877D02*
X7427324Y-7102353D01*
X7427324Y-7102353D02*
X7446372Y-7092829D01*
X7446372Y-7092829D02*
X7465420Y-7092829D01*
X7532086Y-7226163D02*
X7532086Y-7092829D01*
X7532086Y-7026163D02*
X7522562Y-7035687D01*
X7522562Y-7035687D02*
X7532086Y-7045210D01*
X7532086Y-7045210D02*
X7541610Y-7035687D01*
X7541610Y-7035687D02*
X7532086Y-7026163D01*
X7532086Y-7026163D02*
X7532086Y-7045210D01*
X7655896Y-7226163D02*
X7636848Y-7216639D01*
X7636848Y-7216639D02*
X7627324Y-7197591D01*
X7627324Y-7197591D02*
X7627324Y-7026163D01*
X7760658Y-7226163D02*
X7741610Y-7216639D01*
X7741610Y-7216639D02*
X7732086Y-7197591D01*
X7732086Y-7197591D02*
X7732086Y-7026163D01*
X7989229Y-7226163D02*
X7989229Y-7026163D01*
X7989229Y-7026163D02*
X8055896Y-7169020D01*
X8055896Y-7169020D02*
X8122562Y-7026163D01*
X8122562Y-7026163D02*
X8122562Y-7226163D01*
X8303515Y-7226163D02*
X8303515Y-7121401D01*
X8303515Y-7121401D02*
X8293991Y-7102353D01*
X8293991Y-7102353D02*
X8274943Y-7092829D01*
X8274943Y-7092829D02*
X8236848Y-7092829D01*
X8236848Y-7092829D02*
X8217801Y-7102353D01*
X8303515Y-7216639D02*
X8284467Y-7226163D01*
X8284467Y-7226163D02*
X8236848Y-7226163D01*
X8236848Y-7226163D02*
X8217801Y-7216639D01*
X8217801Y-7216639D02*
X8208277Y-7197591D01*
X8208277Y-7197591D02*
X8208277Y-7178544D01*
X8208277Y-7178544D02*
X8217801Y-7159496D01*
X8217801Y-7159496D02*
X8236848Y-7149972D01*
X8236848Y-7149972D02*
X8284467Y-7149972D01*
X8284467Y-7149972D02*
X8303515Y-7140448D01*
X8398753Y-7092829D02*
X8398753Y-7292829D01*
X8398753Y-7102353D02*
X8417801Y-7092829D01*
X8417801Y-7092829D02*
X8455896Y-7092829D01*
X8455896Y-7092829D02*
X8474944Y-7102353D01*
X8474944Y-7102353D02*
X8484467Y-7111877D01*
X8484467Y-7111877D02*
X8493991Y-7130925D01*
X8493991Y-7130925D02*
X8493991Y-7188067D01*
X8493991Y-7188067D02*
X8484467Y-7207115D01*
X8484467Y-7207115D02*
X8474944Y-7216639D01*
X8474944Y-7216639D02*
X8455896Y-7226163D01*
X8455896Y-7226163D02*
X8417801Y-7226163D01*
X8417801Y-7226163D02*
X8398753Y-7216639D01*
X8579705Y-7207115D02*
X8589229Y-7216639D01*
X8589229Y-7216639D02*
X8579705Y-7226163D01*
X8579705Y-7226163D02*
X8570182Y-7216639D01*
X8570182Y-7216639D02*
X8579705Y-7207115D01*
X8579705Y-7207115D02*
X8579705Y-7226163D01*
X8579705Y-7102353D02*
X8589229Y-7111877D01*
X8589229Y-7111877D02*
X8579705Y-7121401D01*
X8579705Y-7121401D02*
X8570182Y-7111877D01*
X8570182Y-7111877D02*
X8579705Y-7102353D01*
X8579705Y-7102353D02*
X8579705Y-7121401D01*
M02*
